<svg xmlns="http://www.w3.org/2000/svg" width="75" height="81" fill="none"><path fill="#333" d="M35.55 72.57c-6.24 0-12.45-2.4-17.2-7.2-9.48-9.6-9.48-25.2 0-34.8 6.02-6.1 14.9-8.58 23.2-6.48.48.12.8.6.66 1.1-.1.48-.6.78-1.07.66-7.66-1.98-15.92.3-21.5 5.98-8.77 8.87-8.77 23.32 0 32.23 8.78 8.87 23.07 8.87 31.87 0 5.64-5.7 7.9-14.1 5.85-21.93-.12-.48.15-.97.63-1.12.48-.13.97.15 1.12.64 2.2 8.44-.24 17.5-6.33 23.66-4.74 4.85-10.98 7.25-17.22 7.25zM35.55 77.15c-7.72 0-14.95-3.05-20.38-8.54-11.24-11.36-11.24-29.87 0-41.24 5.46-5.52 12.7-8.54 20.38-8.54 2.72 0 5.4.4 8 1.13l.9.27-9.9 28.8 28.47-10.02.27.92c2.88 10.2.08 21.2-7.34 28.7-5.45 5.48-12.7 8.53-20.4 8.53zm0-56.5c-7.23 0-14.02 2.83-19.1 8.02-10.56 10.67-10.56 28.02 0 38.66 5.08 5.15 11.9 8.02 19.1 8.02 7.24 0 14.02-2.84 19.12-8.02 6.72-6.8 9.4-16.68 7.1-25.98l-30.14 10.6 10.5-30.5c-2.15-.53-4.35-.8-6.58-.8zM47.82 62.45c-1.4 0-2.74-.55-3.74-1.55-2.05-2.08-2.05-5.5 0-7.57 1-1 2.33-1.55 3.74-1.55 1.42 0 2.75.55 3.74 1.55 2.05 2.08 2.05 5.5 0 7.57-1 .97-2.32 1.55-3.74 1.55zm0-8.9c-.93 0-1.8.36-2.47 1.03-1.36 1.38-1.36 3.6 0 4.97.66.68 1.54 1.04 2.47 1.04.94 0 1.8-.37 2.47-1.05 1.35-1.37 1.35-3.6 0-4.97-.67-.67-1.54-1.03-2.48-1.03zM30.25 65.1c-1.42 0-2.75-.54-3.74-1.55-2.04-2.07-2.04-5.5 0-7.56 1-1.02 2.33-1.57 3.75-1.57 1.4 0 2.74.55 3.73 1.56 1 1 1.54 2.34 1.54 3.77 0 1.43-.54 2.77-1.54 3.78-1 1-2.32 1.55-3.73 1.55zm0-8.87c-.94 0-1.8.37-2.48 1.04-1.35 1.37-1.35 3.6 0 4.97.67.67 1.54 1.04 2.48 1.04.93 0 1.8-.37 2.47-1.04.66-.67 1.02-1.56 1.02-2.5 0-.95-.36-1.83-1.02-2.5-.66-.67-1.54-1-2.47-1zM22.2 48.15c-1.42 0-2.75-.55-3.74-1.55-1-1-1.54-2.35-1.54-3.78 0-1.44.54-2.78 1.54-3.8 1-1 2.32-1.54 3.74-1.54 1.4 0 2.74.55 3.74 1.55s1.53 2.35 1.53 3.8c0 1.42-.54 2.76-1.53 3.77-1 1-2.33 1.55-3.74 1.55zm0-8.87c-.94 0-1.8.36-2.47 1.04-.67.67-1.03 1.55-1.03 2.5 0 .94.36 1.83 1.03 2.5.66.67 1.53 1.03 2.47 1.03.93 0 1.8-.36 2.47-1.03.66-.67 1.02-1.56 1.02-2.5 0-.95-.37-1.83-1.03-2.5-.66-.68-1.54-1.04-2.47-1.04zM36.28 37.66c-1.4 0-2.75-.55-3.74-1.55-1-1-1.54-2.34-1.54-3.77 0-1.44.54-2.78 1.54-3.78S34.86 27 36.28 27c1.4 0 2.74.54 3.73 1.55.38.36.38.94 0 1.28-.35.36-.92.36-1.25 0-.67-.67-1.54-1.04-2.47-1.04-.94 0-1.8.36-2.48 1.03-1.35 1.37-1.35 3.6 0 4.97 1 1 2.48 1.3 3.77.8.45-.2 1 .02 1.18.5.18.46-.03 1-.5 1.2-.65.24-1.34.36-1.97.36zM37.06 68.6c-.03 0-.06 0-.1 0-.47-.05-.87-.48-.8-1l.5-5.24 2.54.76.3-2.68c.06-.5.5-.85 1-.8.48.07.84.52.78 1l-.54 4.86-2.5-.73-.3 3.08c0 .43-.4.76-.88.76zM28.05 34.74h-5.22l.48-2.63-2.67-.02c-.5 0-.9-.42-.9-.9 0-.5.42-.93.9-.93l4.82.06-.45 2.6h3.05c.5 0 .9.4.9.92s-.4.92-.9.92zM13.85 57.36c-.5 0-.9-.4-.9-.88 0-.52.38-.92.87-.95l3.04-.06-.54-2.6 4.82-.18c.5 0 .9.36.94.88.03.52-.36.9-.88.94l-2.68.1.54 2.62-5.2.12zM68.2 30.22c-.4 0-.75-.27-.87-.67-1.06-3.7-3.02-7.07-5.73-9.82-2.68-2.7-6-4.7-9.62-5.76-.48-.15-.75-.64-.6-1.13.15-.5.63-.76 1.12-.6 3.9 1.15 7.5 3.3 10.4 6.2 2.92 2.97 5.06 6.63 6.18 10.62.15.5-.15 1-.64 1.13-.06.02-.15.02-.24.02zM56.32 30.4c-1.4 0-2.74-.54-3.73-1.55-2.06-2.07-2.06-5.5 0-7.56.98-1.02 2.3-1.57 3.72-1.57 1.42 0 2.75.55 3.74 1.56 2.05 2.06 2.05 5.48 0 7.55-1 1-2.32 1.56-3.74 1.56zm0-8.87c-.93 0-1.8.37-2.47 1.04-1.36 1.37-1.36 3.6 0 4.97.66.67 1.54 1.04 2.47 1.04.94 0 1.8-.37 2.48-1.04 1.35-1.37 1.35-3.6 0-4.97-.67-.67-1.54-1.04-2.48-1.04zM51.92 40.22c-1.6 0-2.9-1.3-2.92-2.92l-7.24 2.53L52.86 7.6l.8.24c4.68 1.34 8.96 3.9 12.43 7.4 3.46 3.52 6 7.85 7.32 12.57l.24.84-18.8 6.6v2.03c0 1.64-1.34 2.95-2.94 2.95zm-1.14-5.48v2.53c0 .64.5 1.12 1.1 1.12.65 0 1.13-.52 1.13-1.13v-3.33l18.4-6.46c-1.3-4.12-3.6-7.87-6.6-10.95-3.05-3.08-6.76-5.36-10.83-6.68L44.7 36.9l6.08-2.16z"/></svg>