<svg xmlns="http://www.w3.org/2000/svg" width="368" height="32" fill="none"><path fill="#469BDB" d="M60.28 5.15H53.4c-.4 0-.8.4-1 .8l-2.84 17.48c0 .4.2.6.6.6h3.65c.4 0 .6-.2.6-.6l.82-4.97c0-.4.4-.8 1-.8h2.24c4.65 0 7.28-2.18 7.9-6.55.4-1.78 0-3.37-.82-4.36-1.2-1-3.03-1.6-5.26-1.6zm.8 6.56c-.4 2.4-2.22 2.4-4.04 2.4h-1.2l.8-4.58c0-.2.2-.4.6-.4h.4c1.22 0 2.44 0 3.04.8.4.2.4.8.4 1.8z"/><path fill="#283B82" d="M10.72 5.15H3.84c-.4 0-.8.4-1 .8L0 23.42c0 .4.2.6.6.6h3.24c.4 0 .8-.4 1-.8l.82-4.77c0-.4.4-.8 1.02-.8H8.9c4.65 0 7.28-2.18 7.9-6.55.4-1.78 0-3.37-.82-4.36-1.2-1-2.83-1.6-5.26-1.6zm.8 6.56c-.4 2.4-2.2 2.4-4.04 2.4h-1l.8-4.58c0-.2.2-.4.6-.4h.4c1.23 0 2.44 0 3.05.8.2.2.4.8.2 1.8zM31.56 11.5h-3.24c-.2 0-.6.2-.6.4l-.2 1-.2-.4c-.82-1-2.24-1.4-3.85-1.4-3.65 0-6.88 2.8-7.5 6.57-.4 2 .2 3.78 1.22 4.97 1 1.2 2.42 1.6 4.24 1.6 3.04 0 4.65-1.8 4.65-1.8l-.2 1c0 .4.2.6.6.6h3.03c.4 0 .8-.4 1.02-.8l1.82-11.14c-.2-.2-.6-.6-.8-.6zm-4.66 6.37c-.4 1.8-1.82 3.18-3.84 3.18-1 0-1.82-.4-2.22-.8-.4-.6-.6-1.4-.6-2.38.2-1.8 1.8-3.18 3.63-3.18 1 0 1.62.4 2.22.78.6.6.8 1.6.8 2.4z"/><path fill="#469BDB" d="M80.9 11.5H77.7c-.2 0-.6.2-.6.4l-.2 1-.22-.4c-.8-1-2.22-1.4-3.84-1.4-3.64 0-6.88 2.8-7.48 6.57-.4 2 .2 3.78 1.2 4.97 1.02 1.2 2.44 1.6 4.26 1.6 3.03 0 4.65-1.8 4.65-1.8l-.2 1c0 .4.2.6.6.6h3.04c.4 0 .8-.4 1-.8l1.82-11.14c-.2-.2-.4-.6-.8-.6zm-4.64 6.37c-.4 1.8-1.82 3.18-3.84 3.18-1 0-1.82-.4-2.23-.8-.4-.6-.62-1.4-.62-2.38.2-1.8 1.83-3.18 3.65-3.18 1 0 1.6.4 2.22.78.8.6 1 1.6.8 2.4z"/><path fill="#283B82" d="M49.15 11.5h-3.43c-.4 0-.6.2-.8.4l-4.46 6.76-2.03-6.36c-.2-.4-.4-.6-1-.6h-3.24c-.42 0-.62.4-.62.8l3.64 10.54-3.44 4.77c-.2.4 0 1 .4 1h3.24c.4 0 .6-.2.8-.4l11.14-15.7c.6-.6.2-1.2-.2-1.2z"/><path fill="#469BDB" d="M84.76 5.74l-2.84 17.9c0 .4.2.6.6.6h2.84c.4 0 .8-.4 1-.8l2.85-17.5c0-.4-.2-.6-.6-.6h-3.24c-.2-.2-.4 0-.6.4z"/><path fill="#005DAC" d="M132.76 26.2l3.3-18.2h5.13L138 26.2h-5.24zM156.62 8.2c-1.03-.4-2.68-.8-4.73-.8-5.16 0-8.86 2.52-8.86 6.16 0 2.72 2.57 4.14 4.63 5.05 2.06.92 2.68 1.52 2.68 2.33 0 1.22-1.65 1.82-3.1 1.82-2.05 0-3.18-.3-4.93-1l-.72-.3-.72 4.13c1.24.5 3.5 1 5.87 1 5.45 0 9.04-2.5 9.04-6.35 0-2.13-1.34-3.74-4.43-5.06-1.85-.9-2.98-1.4-2.98-2.32 0-.8.92-1.62 2.97-1.62 1.75 0 3 .3 3.9.7l.52.2.82-3.93zM165.46 8c-1.23 0-2.16.1-2.67 1.3l-7.73 16.9h5.56l1.03-3.04h6.58l.62 3.03h4.93L169.46 8h-4zm-2.36 12.13c.3-.9 2.05-5.36 2.05-5.36s.4-1.1.72-1.82l.3 1.72s1.04 4.55 1.25 5.56h-4.32v-.1zM123.3 20.73l-.52-2.63c-.92-3.03-3.9-6.36-7.2-7.98l4.63 16.17h5.56l8.33-18.2h-5.56l-5.24 12.63z"/><path fill="#FBB120" d="M122.73 16.3c0 .03.03.07.05.1l-.2-.77-1.65-7.7c-.3-1.23-1.23-1.53-2.37-1.53H109l3.28 1c4.05 1.5 7.4 3.95 9.33 6.8.5.74.87 1.5 1.18 2.3l-.05-.2z"/><path fill="#EA192A" d="M235.4 16.08c0 8.77-7.2 15.92-16.2 15.92-8.92 0-16.2-7.15-16.2-15.92 0-8.76 7.2-15.9 16.1-15.9 9.1 0 16.3 7.14 16.3 15.9z"/><path fill="#F9B532" d="M257.24 16c0 8.8-7.24 16-16.3 16-8.95 0-16.27-7.2-16.27-16s7.24-16 16.2-16c9.13 0 16.37 7.2 16.37 16z"/><path fill="#EA192A" d="M235.44 16.08c0-1.18-.17-2.28-.35-3.38h-10c.1-.6.26-1.1.43-1.7h8.96c-.18-.6-.44-1.18-.7-1.7h-7.58c.26-.58.6-1.1.95-1.68h5.77c-.34-.6-.78-1.2-1.3-1.7h-3.18c.52-.6 1.03-1.1 1.64-1.6-2.77-2.55-6.52-4.07-10.6-4.15V32c4.1-.07 7.8-1.66 10.68-4.16.6-.5 1.12-1.1 1.64-1.7h-3.36c-.43-.5-.86-1.1-1.2-1.6h5.77c.34-.5.7-1.1.94-1.7h-7.66c-.25-.5-.5-1.1-.68-1.7h8.96c.5-1.58.86-3.28.86-5.06z"/><path fill="#fff" d="M225 20.06l.27-1.44c-.1 0-.26.1-.43.1-.6 0-.7-.35-.6-.52l.5-2.96h.96l.26-1.6h-.86l.17-1.03h-1.72s-1.04 5.6-1.04 6.28c0 1 .62 1.44 1.4 1.44.5 0 .94-.17 1.1-.26zM225.62 17.35c0 2.37 1.63 2.97 3 2.97 1.3 0 1.82-.26 1.82-.26l.35-1.6s-.96.42-1.82.42c-1.9 0-1.55-1.36-1.55-1.36h3.53s.26-1.1.26-1.52c0-1.1-.6-2.46-2.5-2.46-1.8-.16-3.1 1.7-3.1 3.8zm3-2.45c.96 0 .8 1.1.8 1.18h-1.9c0-.08.16-1.18 1.1-1.18zM239.57 20.06l.35-1.86s-.86.42-1.47.42c-1.2 0-1.72-.93-1.72-1.94 0-2.03 1.03-3.14 2.24-3.14.86 0 1.55.5 1.55.5l.26-1.77s-1.03-.42-1.98-.42c-1.98 0-3.97 1.7-3.97 4.9 0 2.13 1.04 3.57 3.1 3.57.7 0 1.64-.26 1.64-.26zM215.53 13.38c-1.2 0-2.06.33-2.06.33l-.26 1.45s.78-.33 1.9-.33c.6 0 1.13.08 1.13.6 0 .33-.1.4-.1.4s-.5 0-.77 0c-1.46 0-3.1.6-3.1 2.55 0 1.52 1.03 1.86 1.64 1.86 1.2 0 1.72-.76 1.8-.76l-.08.68h1.55l.7-4.66c0-2.04-1.73-2.12-2.34-2.12zm.35 3.8c0 .26-.17 1.6-1.2 1.6-.52 0-.7-.4-.7-.66 0-.43.26-1.02 1.56-1.02.25.1.34.1.34.1zM219.5 20.23c.43 0 2.58.1 2.58-2.2 0-2.12-2.07-1.7-2.07-2.54 0-.43.36-.6.96-.6.26 0 1.2.08 1.2.08l.27-1.52s-.6-.17-1.64-.17c-1.3 0-2.6.5-2.6 2.2 0 1.94 2.16 1.77 2.16 2.53 0 .5-.6.6-1.03.6-.78 0-1.56-.26-1.56-.26l-.25 1.52c.08.16.5.33 1.98.33zM253.88 12.02l-.35 2.3s-.7-.86-1.64-.86c-1.56 0-2.94 1.86-2.94 4.06 0 1.36.7 2.8 2.16 2.8 1.03 0 1.63-.68 1.63-.68l-.08.6h1.72l1.28-8.13-1.8-.08zm-.78 4.5c0 .92-.43 2.1-1.38 2.1-.6 0-.95-.5-.95-1.35 0-1.35.6-2.2 1.38-2.2.6 0 .95.42.95 1.44zM206.14 20.15l1.04-6.1.17 6.1h1.2l2.25-6.1-.95 6.1h1.8l1.4-8.13h-2.86l-1.73 5-.1-5h-2.5l-1.36 8.13h1.64zM232.85 20.15c.52-2.8.6-5.08 1.8-4.66.2-1.1.44-1.53.62-1.96 0 0-.1 0-.35 0-.77 0-1.38 1.02-1.38 1.02l.18-.93h-1.64l-1.12 6.6h1.9v-.08zM243.54 13.38c-1.2 0-2.07.33-2.07.33l-.26 1.45s.8-.33 1.9-.33c.6 0 1.13.08 1.13.6 0 .33-.1.4-.1.4s-.5 0-.77 0c-1.46 0-3.1.6-3.1 2.55 0 1.52 1.04 1.86 1.64 1.86 1.2 0 1.72-.76 1.8-.76l-.08.68h1.55l.7-4.66c.08-2.04-1.73-2.12-2.33-2.12zm.43 3.8c0 .26-.18 1.6-1.2 1.6-.53 0-.7-.4-.7-.66 0-.43.26-1.02 1.55-1.02.26.1.26.1.35.1zM247.33 20.15c.5-2.8.6-5.08 1.8-4.66.18-1.1.44-1.53.6-1.96 0 0-.08 0-.33 0-.78 0-1.38 1.02-1.38 1.02l.17-.93h-1.65l-1.12 6.6h1.9v-.08z"/><path fill="#017AAB" d="M290.23 8.7h2.94l-1.47-3.68-1.47 3.68zM355.4 1.6v1.58l-.8-1.58h-6.3v1.58l-.8-1.58h-8.56c-1.47 0-2.67.26-3.74.8v-.8h-6.02v.8c-.67-.54-1.48-.8-2.55-.8h-21.55l-1.47 3.3-1.46-3.3h-6.83v1.58l-.8-1.58h-5.75l-2.67 6.18-3.08 6.84h6.83l.8-2.1h1.87l.8 2.1h7.77v-1.58l.67 1.58h3.88l.67-1.58v1.58h18.6V11.2h.26c.27 0 .27 0 .27.4v2.9h9.63v-.8c.8.4 2 .8 3.62.8h4l.82-2.12h1.87l.8 2.1h7.76v-1.97l1.2 2h6.3V1.6h-6.02zm-45.23 11.05h-2.28V5.4l-3.22 7.25h-2l-3.22-7.24v7.25h-4.55l-.92-1.98h-4.56l-.8 2.1h-2.54l4-9.33h3.36l3.75 8.8v-8.8h3.6l2.94 6.3 2.68-6.3h3.75v9.2zm9.1-7.24h-5.22v1.72h5.1v1.84h-5.1v1.85h5.22v1.98h-7.5V3.44h7.5V5.4zm10.04 3.83c.28.52.4.92.4 1.7v1.85h-2.26v-1.2c0-.5 0-1.3-.4-1.83-.4-.4-.8-.4-1.6-.4H323v3.43h-2.28V3.44h5.1c1.2 0 2 0 2.67.4.68.4 1.08 1.05 1.08 2.1 0 1.45-.94 2.24-1.6 2.5.66.13 1.06.52 1.33.8zm4.02 3.42h-2.27V3.3h2.27v9.35zm26.37 0h-3.22l-4.3-6.97v6.97h-4.54l-.8-1.98h-4.68l-.8 2.1h-2.55c-1.06 0-2.4-.26-3.2-1.04-.8-.8-1.2-1.85-1.2-3.55 0-1.32.26-2.63 1.2-3.7.67-.78 1.87-1.04 3.34-1.04h2.15V5.4h-2.16c-.8 0-1.2.15-1.74.54-.4.4-.66 1.18-.66 2.1 0 1.06.13 1.7.66 2.24.4.4.94.53 1.6.53h.95l3.08-7.23h3.34l3.75 8.8v-8.8h3.35l3.88 6.45V3.57h2.27v9.08h.27zM342.96 8.7h3.08l-1.47-3.68-1.6 3.68zM320.2 27.64v-7.5l-3.47 3.68 3.48 3.82zM305.9 21.06v1.7h4.94v1.85h-4.95v2h5.47l2.55-2.77-2.4-2.77h-5.63zM325.3 21.06h-2.82v2.37h2.95c.8 0 1.33-.4 1.33-1.18-.13-.8-.66-1.2-1.47-1.2zM366.65 23.3v-5.92H361.03c-1.2 0-2.14.26-2.8.8v-.8h-6.17c-.94 0-2.14.26-2.68.8v-.8h-10.84v.8c-.8-.67-2.27-.8-2.94-.8h-7.23v.8c-.67-.67-2.27-.8-3.08-.8h-8.04l-1.87 1.97-1.75-1.97H301.6v12.9h11.78l1.88-1.98 1.74 1.97h7.22v-3.03h.94c.94 0 2.14 0 3.08-.4v3.56h6.02v-3.42h.27c.4 0 .4 0 .4.4v3.02h18.2c1.2 0 2.4-.26 3.08-.8v.8h5.76c1.2 0 2.4-.13 3.22-.66 1.34-.8 2.14-2.23 2.14-3.94 0-.92-.27-1.84-.67-2.5zm-41.5 2.1h-2.67v3.16h-4.28l-2.68-3.02-2.8 3.02h-8.84v-9.34h8.97l2.67 3.03 2.8-3.03h7.1c1.75 0 3.75.53 3.75 3.03-.13 2.63-2 3.15-4 3.15zm13.4-.52c.26.4.4.92.4 1.7v1.85h-2.28v-1.2c0-.5 0-1.43-.4-1.83-.27-.4-.8-.4-1.6-.4h-2.42v3.43h-2.27V19.1h5.08c1.07 0 2 0 2.68.4.67.38 1.2 1.04 1.2 2.1 0 1.44-.93 2.23-1.6 2.5.67.25 1.07.5 1.2.78zm9.23-3.82h-5.22v1.7h5.08v1.85h-5.08v1.86h5.22v1.97h-7.5V19.1h7.5v1.96zm5.62 7.37h-4.28v-1.97h4.28c.4 0 .67 0 .94-.27.13-.14.26-.4.26-.66 0-.27-.13-.53-.26-.66-.14-.13-.4-.27-.8-.27-2.15-.12-4.7 0-4.7-2.88 0-1.3.8-2.76 3.22-2.76h4.42v2.24h-4.15c-.4 0-.67 0-.94.13-.28.13-.28.4-.28.65 0 .4.27.53.54.66s.53.13.8.13h1.2c1.2 0 2 .27 2.55.8.4.4.68 1.04.68 1.97 0 1.97-1.2 2.9-3.48 2.9zm11.5-.92c-.53.53-1.46.93-2.8.93h-4.28v-1.97h4.28c.4 0 .67 0 .94-.27.13-.14.26-.4.26-.66 0-.27-.13-.53-.26-.66-.14-.13-.4-.27-.8-.27-2.15-.12-4.7 0-4.7-2.88 0-1.3.8-2.76 3.22-2.76h4.42v2.24h-4.02c-.4 0-.67 0-.94.13-.26.13-.26.4-.26.65 0 .4.13.53.53.66.26.13.53.13.8.13h1.2c1.2 0 2 .27 2.54.8.14 0 .14.12.14.12.4.52.53 1.18.53 1.84 0 .78-.25 1.44-.8 1.97zM320.2 27.64v-7.5l-3.47 3.68 3.48 3.82z"/><path fill="#228FE0" d="M355.14 14.1l.27.4h.14l-.4-.4z"/><path fill="#017AAB" d="M335.05 21.06h-2.8v2.37h2.93c.8 0 1.34-.4 1.34-1.18-.13-.8-.67-1.2-1.47-1.2zM325.83 5.18h-2.8v2.37h2.93c.8 0 1.34-.4 1.34-1.18-.13-.8-.67-1.2-1.47-1.2z"/></svg>