<svg xmlns="http://www.w3.org/2000/svg" width="75" height="81" fill="none"><g fill="#333" clip-path="url(#a)"><path d="M37.92 72.12C23.56 72.12 11.88 60.4 11.88 46s11.68-26.12 26.04-26.12c14.35 0 26.04 11.72 26.04 26.12 0 14.44-11.7 26.12-26.04 26.12zm0-50.27c-13.3 0-24.1 10.85-24.1 24.18 0 13.34 10.8 24.2 24.1 24.2s24.1-10.86 24.1-24.2c0-13.33-10.8-24.18-24.1-24.18zM37.92 62.8c-9.2 0-16.7-7.53-16.7-16.77 0-9.23 7.5-16.76 16.7-16.76s16.7 7.53 16.7 16.76c0 9.24-7.5 16.76-16.7 16.76zm0-31.6c-8.15 0-14.78 6.66-14.78 14.83s6.63 14.83 14.78 14.83c8.14 0 14.77-6.66 14.77-14.83S46.05 31.2 37.9 31.2zM1.26 31.15h-.04c-.54-.04-.93-.5-.93-1l.47-13.4c.03-.56.5-.97 1-.94.55.04.97.5.93 1.04L2.22 30.2c-.03.53-.45.95-.96.95zM4.6 31.34c-.54 0-.96-.42-.96-.97V16.8c0-.54.42-.96.96-.96.55 0 .97.42.97.97v13.57c0 .52-.45.97-.97.97zM11.04 31.15c-.5 0-.93-.42-.96-.94l-.52-13.36c-.03-.55.4-.97.93-1 .54-.03.96.4 1 .94l.5 13.37c.04.54-.38.96-.93 1h-.03zM7.7 31.34c-.55 0-.97-.42-.97-.97V16.8c0-.54.42-.96.96-.96s.96.42.96.97v13.57c0 .52-.45.97-.97.97zM6.18 76C3.32 76 1 74.13 1 71.83c0-.1 0-.12.35-3.16.48-4.23 1.32-11.3 1.48-13.47.32-4.74.9-14.66.78-15.82-.1-.87-.93-1.7-1.73-2.23C.93 36.57.03 35.02 0 34c-.03-.75.16-3.18.2-3.43l.06-.9H12.1l.07.9c.03.25.22 2.68.2 3.42-.04 1.05-.94 2.57-1.88 3.2-.78.5-1.65 1.34-1.74 2.2-.13 1.2.45 11.1.77 15.84.16 2.13.96 9.17 1.45 13.37.35 3.04.35 3.17.35 3.27.03 2.3-2.28 4.13-5.15 4.13zm-3.25-4.1c.03 1.2 1.5 2.2 3.25 2.2 1.74 0 3.22-1 3.25-2.2-.03-.23-.16-1.55-.35-3.07-.5-4.23-1.32-11.27-1.48-13.46-.16-2.2-.94-14.54-.78-16.15.2-1.9 1.87-3.2 2.6-3.68.5-.3.98-1.26 1-1.65 0-.36-.02-1.4-.1-2.3h-8.3c-.06.9-.1 1.94-.1 2.3 0 .35.53 1.32 1 1.64.72.48 2.42 1.77 2.62 3.68.16 1.6-.65 13.95-.78 16.15-.16 2.2-.96 9.3-1.48 13.56-.2 1.45-.35 2.7-.35 2.97zM70.98 76c-2.22 0-4.03-1.87-4.03-4.17 0-.1.16-2.77 1-18.37l.16-2.65c.04-.54.5-.92 1.04-.9.55.04.94.5.9 1.04l-.16 2.65c-.38 6.7-1 17.94-1 18.3 0 1.2.94 2.2 2.1 2.2 1.16 0 2.1-1 2.1-2.23 0-.3-.56-9.98-.9-16.38l-.33-5.62c-.04-.55.38-1 .9-1.04.5-.03 1 .4 1.03.9l.32 5.63c.77 13.88.9 16.37.9 16.5 0 2.3-1.8 4.13-4.02 4.13zM70.75 51.55h-.6c-1.46 0-2.88-.77-3.78-2.06-1-1.47-1.1-2.9-1.1-4.5V29.73c.04-.36.04-.68.04-.94 0-6.53 2.5-13.8 5.8-13.8 1.7 0 2.2 2.4 2.42 3.55v.03c.1.42.35 1.72.2 29.36 0 .58 0 .97 0 1.03 0 .7-.27 1.36-.68 1.84l-.13.14-.15.07c-.6.4-1.3.55-2 .55zm-3.54-21.7V45c0 1.6.1 2.45.75 3.4.55.77 1.35 1.25 2.2 1.25h.6c.32 0 .64-.06.97-.2.06-.12.1-.25.1-.4 0-.1 0-.47 0-1.08.12-24.74-.07-28.48-.17-28.97v-.03c-.3-1.4-.5-1.84-.64-2.03-1.3.3-3.73 5.52-3.73 11.85-.03.3-.03.63-.06 1.05z"/></g><defs><clipPath id="a"><path fill="#fff" d="M0 0h75v81H0z"/></clipPath></defs></svg>