<svg xmlns="http://www.w3.org/2000/svg" width="303" height="231" fill="none"><path fill="#FFC139" d="M.87 135.8c.25-.53.6-1.1 1.05-1.7.38-.68.86-1.47 1.44-2.38 1.5-2.63 2.78-4.9 3.78-6.76 1-1.95 1.7-3.44 2.13-4.48.85-1.93 1.5-3.92 1.9-5.96.5-2.05.83-4.16 1.02-6.33.62-10.33 2.27-21.5 4.93-33.47 2.66-12 6.2-24.95 10.66-38.87 1.62-4.87 3.5-8.57 5.6-11.1 2.08-2.6 4.34-4 6.77-4.2 1.86-.14 3.4.14 4.6.83 1.2.62 2.03 1.74 2.52 3.35.18.63.37 1.73.57 3.3.26 1.56.5 3.6.68 6.1.05.56-.12 5.7-.52 15.43-.77 4.88-1.9 10.96-3.42 18.27-1.5 7.23-3.45 15.64-5.8 25.23-.6 1.34-1.3 3.05-2.07 5.12-.77 2.07-1.73 4.55-2.87 7.44-.17.52-.37 1.2-.6 2.1-.14.8-.4 1.7-.74 2.74-.46.54-.97 1.4-1.52 2.6-.5 1.2-1.05 2.67-1.7 4.44-.98 4.1-1.84 9.23-2.58 15.4-.67 6.15-1.18 13.4-1.54 21.77-.4 7.85-.6 14.84-.63 20.95-.02 6.17.15 11.5.5 16 .2 1.72.48 3.5.84 5.33.38 2.2.72 3.86 1.03 5 .38 1.18.78 1.76 1.2 1.72 1-.07 2.37-2.4 4.1-7 1.8-4.52 4.04-11.3 6.7-20.34l-.48-2.12c.24-.67.57-1.52 1-2.56.48-1.04.84-2.36 1.08-3.96 1.34-5.85 2.32-10.38 2.93-13.6.6-3.27 1-5.13 1.18-5.58.78-2.93 1.84-5.8 3.2-8.65 1.44-2.85 3.06-5.56 4.87-8.15 1.24 2.06 2.25 3.9 3.02 5.48.77 1.6 1.45 2.94 2.04 4.05-.9 1.36-1.74 3.07-2.5 5.15-.8 2-1.37 4.2-1.76 6.6-.5 2.05-.9 4.16-1.23 6.34-.27 2.1-.58 4.14-.93 6.1-2.5 13.92-5.12 25.5-7.85 34.78-2.73 9.33-5.45 16.33-8.18 21-.43.96-.96 1.94-1.6 2.92-.57.98-1.1 1.92-1.6 2.82-.8 1-1.64 1.77-2.52 2.34-.9.65-1.83 1-2.83 1.08-3.07.24-5.6-.24-7.55-1.46-1.9-1.2-3.3-3.15-4.22-5.8-.54-2.27-1.04-4.53-1.5-6.8-.4-2.2-.8-4.38-1.27-6.57-.54-1.4-.97-2.88-1.3-4.43-.34-1.5-.58-3.16-.72-5l-1.26-16.3c-.06-.78 0-2 .14-3.66.23-1.66.32-2.93.25-3.78-.6-2.1-1.2-4.26-1.8-6.44.02-2.5.14-5.68.34-9.5.28-3.84.62-8.2 1.03-13.12l-2.98-2.25c-.36-.9-.96-2.14-1.8-3.73-.84-1.58-1.92-3.5-3.25-5.78zm36.6-75.26c-.43.03-.73.34-.9.93-.1.5-.3 1.28-.58 2.3-.02.72-.2 1.7-.53 2.95-.34 1.25-.8 2.83-1.36 4.74-.44 1.62-.8 3.05-1.05 4.3-.2 1.15-.27 2.1-.22 2.8l.82.8 1.48-1.73c0-1.07.18-2.27.58-3.6.4-1.32.98-2.84 1.7-4.55.6-1.55 1.04-2.88 1.3-3.98.3-1.1.4-2 .34-2.72-.07-.85-.22-1.45-.46-1.8-.24-.33-.62-.48-1.12-.44zm15.24 71.22c.47-.54.95-1.23 1.46-2.06.44-.9.97-1.87 1.6-2.92l7.8-6.32c.92-1.3 2.33-2.95 4.26-4.97 1.92-2.1 4.3-4.6 7.17-7.57.28-.8.78-1.75 1.5-2.8.77-1.15 1.68-2.26 2.75-3.35.93-1 1.86-1.94 2.8-2.8.93-.94 1.8-1.83 2.6-2.68.98-1.16 1.9-2.3 2.74-3.45.9-1.15 1.82-2.26 2.75-3.34 1.06-1.08 2.18-1.95 3.35-2.62 1.17-.66 2.46-1.05 3.9-1.16 1.56-.13 2.76 0 3.58.36.88.3 1.4.8 1.5 1.5-.57 1.7-1.2 3.4-1.85 5.1l.72.92c3.04-1.46 5.44-2.55 7.18-3.26 1.74-.7 2.86-1.08 3.36-1.12 5.2-.4 9.22.9 12.04 3.9 2.88 2.95 4.58 7.63 5.08 14.05.1 1.22.06 2.66-.1 4.32-.16 1.66-.48 3.48-.97 5.45-.55 2.2-1.2 4.05-1.94 5.54-.67 1.48-1.34 2.58-2 3.27.36.9.73 1.56 1.12 1.96.4.33.86.48 1.44.43.57-.04 1.13-.27 1.67-.67.6-.42 1.32-1 2.12-1.8.84 1.53 1.65 3.1 2.42 4.78.84 1.6 1.68 3.17 2.53 4.76-1.2 1.24-2.36 2.44-3.5 3.6-1.12 1.18-2.33 2.3-3.6 3.42-1.54 1.48-3.04 2.6-4.5 3.36-1.37.68-2.78 1.08-4.2 1.2-1.65.12-3.03-.17-4.17-.87-1.13-.7-2.07-1.74-2.82-3.12-1.6 2.5-3.6 4.84-6.02 7.04-2.35 2.13-5 3.95-7.98 5.47-1.72 1-3.3 1.8-4.76 2.42-1.4.54-2.7.86-3.92.95-.35.04-1.06.24-2.1.6-.98.37-1.8.58-2.44.63-4.07.3-7.88-1.1-11.43-4.28s-5.5-6.87-5.82-11.08c-.13-1.72.1-4 .66-6.84.55-2.92.8-4.63.77-5.13-.04-.5-.24-.87-.62-1.13-.32-.34-.76-.48-1.33-.44-.36.03-1.17.63-2.45 1.8-1.27 1.2-3.08 2.87-5.42 5.06-.2.3-.4.75-.65 1.34-.24.6-.66 1.27-1.24 2.03-.7-1.6-1.47-3.2-2.3-4.77-.86-1.66-1.77-3.24-2.75-4.75zm50-23.6c-.36.1-.86.52-1.52 1.3-.6.68-1.17 1.55-1.74 2.6-.87 1.72-1.87 3.6-3 5.62-.73.92-1.53 1.67-2.42 2.24-.82.5-1.8.9-2.92 1.2-.7.12-1.4.9-2.08 2.3-.7 1.36-1.33 3.3-1.92 5.87-.6 2.27-1.04 4.2-1.27 5.8-.23 1.6-.3 2.94-.23 4 .16 2 .77 3.47 1.85 4.4 1.08.9 2.65 1.3 4.72 1.13 3.3-.26 6.22-1.38 8.8-3.38 2.63-2.07 5.02-5.02 7.17-8.85 1.03-1.45 2-2.82 2.9-4.1.55-.48.96-1.2 1.24-2.15.28-1.03.55-2.27.8-3.73l1.45-6.25c-.8-2.1-1.55-3.73-2.22-4.9-.66-1.23-1.3-1.98-1.88-2.22-.38-.18-1.18-.34-2.4-.46-1.25-.2-3.02-.35-5.33-.45zm27.55 17.56c.46-.54.94-1.22 1.45-2.05.44-.9.97-1.88 1.6-2.93l7.8-6.32c.9-1.3 2.33-2.95 4.26-4.96 1.92-2.1 4.3-4.6 7.17-7.56.3-.82.8-1.75 1.5-2.8.77-1.15 1.7-2.27 2.76-3.35.9-1 1.85-1.94 2.8-2.8.92-.94 1.78-1.84 2.58-2.7 1-1.14 1.9-2.3 2.75-3.43.9-1.15 1.83-2.27 2.75-3.34 1.07-1.1 2.2-1.97 3.36-2.63 1.17-.67 2.46-1.06 3.9-1.17 1.56-.12 2.76 0 3.58.37.88.3 1.4.8 1.5 1.5-.57 1.7-1.2 3.4-1.85 5.1l.72.9c3.03-1.45 5.43-2.53 7.17-3.24 1.74-.7 2.86-1.08 3.36-1.12 5.2-.4 9.22.9 12.05 3.92 2.88 2.93 4.58 7.6 5.08 14.04.1 1.2.06 2.65-.1 4.3-.16 1.68-.48 3.5-.97 5.48-.56 2.2-1.2 4.04-1.95 5.54-.68 1.5-1.35 2.58-2 3.28.35.9.72 1.56 1.1 1.96.4.33.87.47 1.44.42.57-.04 1.12-.26 1.67-.66.6-.4 1.32-1 2.12-1.8.83 1.53 1.63 3.12 2.4 4.78.85 1.6 1.7 3.18 2.53 4.76-1.2 1.25-2.36 2.45-3.5 3.6-1.12 1.18-2.32 2.3-3.6 3.42-1.53 1.48-3.03 2.6-4.48 3.37-1.38.67-2.8 1.06-4.22 1.18-1.64.12-3.02-.16-4.16-.87-1.13-.7-2.07-1.73-2.83-3.1-1.6 2.5-3.6 4.84-6.02 7.04-2.35 2.12-5 3.94-7.98 5.47-1.72 1-3.3 1.8-4.77 2.42-1.4.54-2.7.86-3.9.96-.37.02-1.07.22-2.12.6-.97.35-1.78.56-2.43.6-4.07.33-7.88-1.1-11.43-4.27-3.56-3.16-5.5-6.85-5.83-11.07-.13-1.7.1-4 .66-6.84.56-2.92.82-4.63.78-5.13-.03-.5-.24-.88-.62-1.14-.3-.33-.75-.48-1.32-.43-.36.02-1.17.63-2.45 1.8-1.26 1.18-3.07 2.86-5.4 5.06-.2.3-.42.75-.66 1.34-.24.6-.66 1.27-1.24 2.04-.7-1.6-1.47-3.2-2.3-4.78-.86-1.66-1.78-3.24-2.75-4.74zm49.98-23.6c-.35.1-.85.52-1.5 1.3-.6.7-1.18 1.56-1.75 2.6-.87 1.73-1.87 3.6-3 5.63-.73.92-1.53 1.66-2.42 2.23-.82.5-1.8.9-2.92 1.2-.7.13-1.4.9-2.1 2.32-.67 1.34-1.3 3.3-1.9 5.86-.6 2.27-1.04 4.2-1.27 5.8-.24 1.6-.3 2.94-.23 4 .16 2 .77 3.47 1.85 4.4 1.07.9 2.64 1.3 4.7 1.13 3.3-.26 6.23-1.4 8.8-3.38 2.64-2.08 5.03-5.03 7.18-8.86 1.03-1.45 2-2.8 2.9-4.1.55-.48.96-1.2 1.24-2.15.28-1.02.55-2.26.8-3.7l1.44-6.27c-.8-2.1-1.54-3.72-2.2-4.9-.68-1.23-1.3-1.97-1.9-2.2-.38-.2-1.18-.35-2.4-.47-1.25-.2-3.02-.34-5.33-.45zm27.55 17.56l.6-.8.23-1.1c1.17-1.66 2.18-2.96 3.04-3.9.86-1 1.52-1.76 1.98-2.3.33-.4 1.08-.9 2.25-1.58 1.16-.66 2.75-1.5 4.75-2.52l1.33-.97c.44-.8 1.24-2.02 2.4-3.62 1.18-1.6 2.58-3.44 4.22-5.5.32-.46.82-.96 1.5-1.52.67-.56 1.37-1.26 2.1-2.1 1.58-1.78 3.16-3.6 4.74-5.44 1.6-1.9 3.06-3.8 4.42-5.62.6-.7 1.83-1.94 3.7-3.74 1.86-1.86 4.4-4.43 7.6-7.7.46-.4 1.3-.96 2.55-1.7 1.23-.82 2.84-1.77 4.84-2.86.9-.5 1.53-1.23 1.9-2.2.4-1.03.56-2.3.45-3.8.5-.97.94-2.12 1.34-3.45.46-1.4.87-3 1.23-4.83.55-2.27.94-4.1 1.2-5.48.3-1.46.56-2.45.73-2.97.96-3.3 2.3-7.18 4.05-11.63 1.74-4.5 3.82-9.67 6.24-15.46 1.2-3.04 2.63-6.42 4.28-10.14 1.07-1.88 2.33-3.3 3.76-4.28 1.43-1.04 2.96-1.63 4.6-1.76 1.3-.1 2.26.33 2.9 1.3.72.94 1.16 2.37 1.3 4.3.25 3.07.26 6.02.05 8.83-.2 2.82-.8 5.5-1.75 8-.17.52-.3 1.3-.36 2.3-.06 1-.1 2.23-.14 3.67 0 1-.2 2-.63 2.96-.36.96-.86 1.86-1.52 2.7.04.5.02 1.12-.07 1.84-.1.65-.17 1.45-.24 2.4l-1.35 2.03c-.1.44-.14 1-.1 1.63.05.57.1 1.18.15 1.82.03.43-.15 1.3-.55 2.63-.4 1.26-1.02 3.07-1.84 5.43-.95 2.52-1.73 4.52-2.33 6-.54 1.48-.82 2.4-.87 2.76-.26.37-.6.97-1.04 1.8-.38.8-.85 1.75-1.4 2.8l.5 2.33-4.94 25.17c.2 2.7.43 5.03.65 6.95.23 1.92.56 3.44 1 4.55.46 1.2 1.15 2.64 2.07 4.37 1 1.65 2.2 3.42 3.65 5.32.9 1.28 1.9 2.2 3.02 2.77 1.1.5 2.28.68 3.5.6 1.35-.12 2.68-.58 3.98-1.4 1.36-.9 2.7-2.18 4-3.87 1 1.8 1.93 3.48 2.77 5.07.9 1.58 1.67 3.06 2.28 4.45-.35.25-1.07 1.06-2.2 2.44-1.03 1.3-2.43 3.17-4.18 5.6-1.04 1.45-2.4 2.56-4.05 3.34-1.6.7-3.6 1.14-6.04 1.33-5.35.4-9.8-.64-13.38-3.16-3.57-2.53-6.25-6.52-8.05-11.98-.37-1.13-.7-2.1-.98-2.95-.3-.84-.56-1.6-.83-2.3-.6-1.33-1.58-2.72-2.92-4.2-.44.75-.8 1.32-1.05 1.7-.8.64-1.7 1.53-2.7 2.7-.92 1.14-1.85 2.57-2.8 4.3-.15.73-.47 1.65-.96 2.77-.5 1.04-1.18 2.32-2.07 3.82-2.08 2.82-4.2 5.68-6.34 8.58-2.15 2.82-4.3 5.6-6.46 8.36-2.93 3.82-5.7 6.66-8.28 8.5-2.6 1.94-4.88 2.98-6.88 3.13-3.57.3-6.27-.36-8.12-1.94-1.84-1.5-2.9-4.05-3.18-7.62-.13-1.64.3-3.97 1.3-7 .97-3.1 1.4-5.35 1.3-6.77l-.78-1.67-5.06-9.52zm51.5-34.82c-.04-.36-.22-.88-.56-1.57-1 1.14-2.22 2.5-3.68 4.04-1.45 1.55-3.2 3.27-5.2 5.15-.4 1.17-1.4 3.08-3 5.72-1.6 2.56-3.86 5.8-6.8 9.68-.83 1.15-1.94 3.1-3.3 5.86-1.37 2.7-3.05 6.02-5.04 10-.67 1.55-1.35 3.43-2.04 5.64.03.43.35.87.96 1.33 2.1-.8 4.56-2.87 7.4-6.18 2.9-3.4 6.26-8 10.12-13.83 3.97-6.2 6.87-11.4 8.7-15.65 1.8-4.3 2.62-7.7 2.43-10.2z"/></svg>