<svg xmlns="http://www.w3.org/2000/svg" width="75" height="81" fill="none"><path fill="#333" d="M58.35 72.1H38.6c-.6 0-1.05-.47-1.05-1.06 0-.6.45-1.04 1.04-1.04h19.75c.6 0 1.04.45 1.04 1.04 0 .6-.5 1.05-1.05 1.05zM58.62 78.36H36.75l-.6-5.6c-.06-.57.35-1.1.95-1.16.55-.07 1.08.35 1.14.94l.4 3.76h18.1l5.96-56.02H32.64l2.4 22.44.35 3.45c.06.55-.36 1.08-.95 1.15-.6.07-1.08-.35-1.15-.94l-.35-3.45-2.65-24.77H65l-6.38 60.2zM61.86 32.48h-28.5c-.58 0-1.04-.46-1.04-1.05 0-.6.46-1.04 1.05-1.04h28.5c.6 0 1.04.44 1.04 1.03 0 .6-.48 1.05-1.04 1.05zM50.16 67.9c-.04 0-.1 0-.14 0-.56-.06-.98-.6-.9-1.18L57.8.92c.07-.56.6-.98 1.2-.9.55.06.96.58.9 1.17L51.2 67c-.07.52-.52.9-1.04.9zM24.28 79.05c-10.04 0-18.22-8.18-18.22-18.22 0-9.23 6.9-17.03 16.1-18.08.55-.07 1.07.35 1.14.9.07.57-.35 1.1-.9 1.16-8.12.95-14.25 7.85-14.25 16.03 0 8.9 7.24 16.13 16.13 16.13 8.88 0 16.12-7.24 16.12-16.13 0-8.08-6.02-14.98-14.03-16-.56-.06-.98-.58-.9-1.17.06-.56.58-.98 1.17-.9 9.06 1.14 15.9 8.9 15.9 18.07-.05 10.04-8.2 18.22-18.26 18.22zM24.28 47.42c-2.03 0-3.6-1.1-3.6-2.58 0-.83.95-2.26 2.83-4.25l.78-.8.76.8c1.88 1.98 2.82 3.4 2.82 4.24 0 1.47-1.53 2.58-3.58 2.58zm-1.47-2.54c.12.14.64.45 1.48.45.83 0 1.32-.3 1.46-.45-.18-.35-.73-1.15-1.46-2-.7.85-1.3 1.65-1.47 2zM27.72 69.23c.7 0 1.26-.56 1.26-1.26s-.56-1.25-1.26-1.25-1.25.56-1.25 1.25c0 .7.56 1.26 1.25 1.26zM32.57 65.54c.7 0 1.25-.56 1.25-1.26s-.56-1.25-1.25-1.25c-.7 0-1.26.56-1.26 1.25 0 .7.57 1.26 1.27 1.26zM27.72 62.7c.7 0 1.26-.55 1.26-1.24 0-.7-.56-1.25-1.26-1.25s-1.25.57-1.25 1.26c0 .7.56 1.25 1.25 1.25zM32.57 59.02c.7 0 1.25-.56 1.25-1.25 0-.7-.56-1.26-1.25-1.26-.7 0-1.26.58-1.26 1.27 0 .7.57 1.25 1.27 1.25zM27.72 56.2c.7 0 1.26-.56 1.26-1.25 0-.7-.56-1.26-1.26-1.26s-1.25.55-1.25 1.25.56 1.25 1.25 1.25zM32.57 52.5c.7 0 1.25-.55 1.25-1.25S33.26 50 32.57 50c-.7 0-1.26.56-1.26 1.25 0 .7.57 1.26 1.27 1.26zM27.72 49.69c.7-.02 1.26-.58 1.26-1.27 0-.7-.56-1.25-1.26-1.25s-1.25.56-1.25 1.25c0 .7.56 1.26 1.25 1.26zM27.72 75.74c.7 0 1.26-.56 1.26-1.25 0-.7-.56-1.26-1.26-1.26s-1.25.56-1.25 1.25c0 .68.56 1.24 1.25 1.24zM32.57 72.05c.7 0 1.25-.56 1.25-1.25 0-.7-.56-1.26-1.25-1.26-.7 0-1.26.56-1.26 1.26s.57 1.25 1.27 1.25zM37.27 61.77c.7 0 1.25-.56 1.25-1.25 0-.7-.56-1.25-1.25-1.25-.7 0-1.25.56-1.25 1.25 0 .7.56 1.25 1.25 1.25zM37.27 55.26c.7 0 1.25-.56 1.25-1.25 0-.7-.56-1.25-1.25-1.25-.7 0-1.25.56-1.25 1.26s.56 1.26 1.25 1.26zM37.27 68.3c.7 0 1.25-.57 1.25-1.27 0-.7-.56-1.25-1.25-1.25-.7 0-1.25.56-1.25 1.25 0 .7.56 1.26 1.25 1.26zM12.08 45.02c-.6 0-1.1-.07-1.6-.25-.94-.3-2.02-.94-2.65-1.4-.5-.34-2.54-1.94-2.6-2L4 40.4l1.36-.77c.03-.03 3.38-1.95 5.02-2.85 1.08-.6 3.86-1.96 6.58-1.96.24 0 .5 0 .73.04 1.14.1 2.2.45 3.2 1.04.55.32 2.02 1.54 2.43 1.9l1.36 1.14-1.68.62c-.97.4-2.8 1.2-3.4 1.74-1.27 1.08-2.45 1.96-3.85 2.76-1 .55-2.4.94-3.7.94zM7.73 40.7c.55.42 1.1.87 1.32 1 .56.43 1.46.9 2.06 1.1.3.06.6.13.98.13.9 0 1.95-.28 2.65-.66 1.3-.77 2.33-1.5 3.48-2.5.6-.5 1.58-1.02 2.42-1.44-.4-.28-.66-.52-.8-.6-.77-.4-1.57-.7-2.4-.76-1.6-.14-3.94.5-6.1 1.67-.9.52-2.48 1.4-3.6 2.06zM23.37 42.37l-.07-1.05c-.07-1.46-.8-1.67-.87-1.7h.03l.32-2.06c.1 0 2.4.42 2.6 3.63l.08 1.03-2.1.14z"/></svg>