<svg xmlns="http://www.w3.org/2000/svg" width="60" height="53" fill="none"><path fill="#FFC139" d="M60 24.88c0-1.6-.55-2.93-1.64-4-1.06-1.08-2.38-1.63-3.98-1.63h-.18c-.24-2.62-.94-5.06-2.1-7.32-1.14-2.3-2.63-4.3-4.46-5.98-1.84-1.68-3.95-3-6.33-4C38.94 1 36.4.5 33.76.5h-7.5c-2.66 0-5.18.5-7.56 1.46-2.4.98-4.5 2.3-6.34 4-1.83 1.67-3.34 3.66-4.5 5.97-1.14 2.26-1.82 4.7-2.06 7.32h-.17c-1.6 0-2.95.55-4.05 1.64C.53 21.94 0 23.26 0 24.87c0 .93.2 1.8.64 2.63.43.8.96 1.42 1.6 1.9-.64.73-1.17 1.6-1.6 2.62C.2 33 0 34.05 0 35.2c0 1.86.55 3.5 1.64 4.9 1.1 1.42 2.48 2.4 4.16 2.94.27 2.8 1.47 5.17 3.58 7.1 2.1 1.9 4.6 2.86 7.5 2.86h26.25c2.9 0 5.4-.96 7.5-2.87 2.1-1.92 3.3-4.28 3.57-7.1 1.68-.54 3.07-1.53 4.16-2.98C59.46 38.6 60 36.98 60 35.2c0-1.15-.2-2.2-.64-3.18-.43-1-.96-1.9-1.6-2.63.64-.48 1.17-1.1 1.6-1.9.43-.8.64-1.7.64-2.63zM26.25 4.25h7.5c2.15 0 4.18.4 6.1 1.17 1.95.74 3.67 1.8 5.15 3.17 1.48 1.3 2.7 2.9 3.63 4.73.98 1.84 1.58 3.8 1.82 5.92H9.55c.24-2.1.82-4.06 1.76-5.86 1-1.85 2.22-3.43 3.7-4.76 1.48-1.36 3.18-2.44 5.1-3.22 1.95-.78 4-1.17 6.15-1.17zM5.62 23h48.76c.54 0 1 .18 1.34.53.35.35.53.8.53 1.34 0 .55-.18 1-.53 1.35-.35.35-.8.53-1.34.53h-7.5c-.2 0-.4.04-.6.12-.15.08-.32.15-.52.23l-6.38 4.92-6.4-4.68c-.2-.2-.38-.34-.58-.4-.15-.13-.33-.2-.52-.2H5.63c-.55 0-1-.17-1.35-.52-.35-.35-.53-.8-.53-1.34 0-.55.18-1 .53-1.35.35-.35.8-.53 1.34-.53zm37.5 26.25H16.9c-1.8 0-3.36-.53-4.7-1.58-1.28-1.1-2.16-2.44-2.63-4.05h40.72c-.4 1.6-1.23 2.95-2.52 4.05-1.3 1.05-2.83 1.58-4.63 1.58zm8.44-9.38H8.44c-1.33 0-2.44-.44-3.34-1.34-.9-.9-1.35-2-1.35-3.34 0-1.34.45-2.45 1.35-3.35.9-.9 2-1.35 3.34-1.35H31.3l6.96 5.27c.2.08.37.16.53.24.18.1.38.13.58.13.2 0 .37-.04.52-.12.2-.07.4-.15.6-.23l6.96-5.27h4.1c1.33 0 2.44.45 3.34 1.35.9.9 1.35 2 1.35 3.34 0 1.32-.45 2.43-1.35 3.33-.9.9-2 1.34-3.34 1.34zM20.04 12.34c-.35-.4-.78-.6-1.3-.6-.5 0-.93.2-1.28.6-.4.35-.6.78-.6 1.3.02.5.2.92.6 1.27l1.88 1.9c.15.18.35.34.58.46.28.08.5.1.7.1.2.02.42-.02.65-.1.27-.12.5-.28.64-.47.4-.36.6-.8.6-1.3s-.2-.94-.6-1.3l-1.86-1.86zM28.7 8.6l-1.86 1.86c-.4.35-.6.78-.6 1.3 0 .5.2.93.6 1.28.15.2.33.35.52.47.24.1.5.13.77.13s.5-.04.7-.12c.23-.1.43-.27.58-.46l1.9-1.88c.38-.35.57-.78.57-1.3 0-.5-.2-.92-.58-1.27-.36-.4-.8-.6-1.3-.6s-.94.2-1.3.6zm12.55 1.28c-.55 0-1 .17-1.35.52-.35.35-.52.8-.52 1.35v1.88c0 .54.17 1 .52 1.34.35.35.8.53 1.35.53s1-.18 1.35-.53c.35-.35.52-.8.52-1.35v-1.87c0-.55-.17-1-.52-1.35-.35-.35-.8-.53-1.35-.53z"/></svg>