<svg xmlns="http://www.w3.org/2000/svg" width="60" height="61" fill="none"><path fill="#FFC139" d="M58.13 17.63H47.87L37.2 1.57C36.9 1.14 36.5.9 36 .8c-.5-.1-.98-.03-1.4.24-.44.32-.7.73-.83 1.23-.08.5.02.98.3 1.4l9.3 13.95h-26.7l9.3-13.94c.28-.43.36-.9.24-1.4-.1-.5-.34-.92-.77-1.24-.43-.27-.9-.35-1.4-.23-.5.1-.92.34-1.24.77L12.12 17.62H1.87c-.5 0-.95.2-1.34.6-.35.34-.53.77-.53 1.28 0 .5.18.96.53 1.35.4.35.84.52 1.34.52h56.26c.5 0 .93-.17 1.28-.52.4-.4.6-.84.6-1.35 0-.5-.2-.94-.6-1.3-.34-.38-.77-.57-1.27-.57zm-5.04 18.45l1.27-8.8c.08-.53-.03-1-.35-1.4-.3-.42-.72-.68-1.23-.75-.55-.08-1.04.03-1.47.35-.4.3-.63.72-.7 1.23l-1.12 8.1c-.42-.12-.87-.2-1.34-.24-.43-.04-.86-.06-1.28-.06-1.8 0-3.5.35-5.1 1.05-1.6.67-3 1.6-4.22 2.82-1.17 1.17-2.1 2.56-2.8 4.16-.68 1.6-1 3.3-1 5.1 0 .66.03 1.3.1 1.93.12.62.26 1.23.42 1.8h-21.4L9.4 26.73c-.08-.5-.34-.9-.77-1.22-.38-.32-.85-.43-1.4-.36-.5.08-.9.34-1.22.77-.32.38-.43.85-.36 1.4l3.75 26.24c.08.43.3.8.65 1.12.35.3.76.47 1.23.47H36.1c1.2 1.67 2.75 3.02 4.62 4.04 1.88 1.05 3.93 1.58 6.16 1.58 1.8 0 3.5-.35 5.1-1.05 1.6-.67 2.98-1.6 4.15-2.76 1.2-1.2 2.15-2.62 2.82-4.22.7-1.6 1.05-3.3 1.05-5.1 0-2.5-.64-4.76-1.93-6.8-1.25-2.06-2.9-3.64-4.98-4.74zM46.86 57c-2.57 0-4.78-.92-6.62-2.75-1.83-1.84-2.75-4.05-2.75-6.63 0-2.57.92-4.78 2.75-6.62 1.84-1.83 4.05-2.75 6.63-2.75 2.57 0 4.78.92 6.62 2.75 1.83 1.84 2.75 4.05 2.75 6.63 0 2.57-.92 4.78-2.75 6.62-1.84 1.83-4.05 2.75-6.63 2.75zm3.76-11.25h-1.88v-1.88c0-.5-.2-.93-.6-1.28-.34-.4-.77-.6-1.27-.6s-.96.2-1.35.6c-.35.34-.53.77-.53 1.27v1.88h-1.88c-.5 0-.95.2-1.34.6-.35.34-.53.77-.53 1.27s.18.96.53 1.35c.4.35.84.53 1.34.53H45v1.88c0 .5.18.95.53 1.34.4.35.84.53 1.34.53.5 0 .94-.18 1.3-.53.38-.4.58-.84.58-1.34V49.5h1.88c.5 0 .93-.18 1.28-.53.4-.4.6-.84.6-1.34 0-.5-.2-.94-.6-1.3-.34-.38-.77-.58-1.27-.58z"/></svg>