<svg xmlns="http://www.w3.org/2000/svg" width="60" height="61" fill="none"><path fill="#FFC139" d="M58.7 32.74L48.4 29.3l-3.46-12.2c-.12-.4-.35-.7-.7-.94-.3-.27-.7-.4-1.12-.4H26.25v-1.88c0-1.8-.35-3.5-1.05-5.1-.67-1.6-1.6-3-2.82-4.16-1.17-1.2-2.56-2.15-4.16-2.82-1.6-.7-3.3-1.05-5.1-1.05-1.8 0-3.5.35-5.1 1.05-1.6.67-3 1.6-4.2 2.82C2.63 5.8 1.7 7.18 1 8.78c-.67 1.6-1 3.3-1 5.1 0 1.8.33 3.5 1 5.1.7 1.6 1.64 3 2.8 4.2C5.03 24.37 6.44 25.3 8.04 26c1.6.67 3.3 1 5.1 1 1.83 0 3.55-.35 5.15-1.05 1.6-.7 3-1.68 4.22-2.93V49.5H3.75V30.75c0-.5-.2-.94-.6-1.3-.34-.38-.77-.57-1.27-.57s-.96.2-1.35.58c-.35.35-.53.78-.53 1.3v20.6c0 .52.18.97.53 1.36.4.35.84.53 1.34.53H28.3c.43 2.15 1.5 3.93 3.22 5.33 1.72 1.45 3.7 2.17 5.98 2.17 2.27 0 4.26-.72 5.98-2.17 1.72-1.4 2.8-3.18 3.22-5.33h11.42c.5 0 .94-.18 1.3-.53.38-.4.58-.84.58-1.34V34.5c0-.4-.12-.74-.35-1.05-.24-.36-.55-.6-.94-.7zm-45.58-9.5c-2.57 0-4.78-.9-6.62-2.74-1.83-1.84-2.75-4.05-2.75-6.63 0-2.57.92-4.78 2.75-6.62 1.84-1.83 4.05-2.75 6.63-2.75 2.57 0 4.78.92 6.62 2.75 1.83 1.84 2.75 4.05 2.75 6.63 0 2.57-.92 4.78-2.75 6.62-1.84 1.83-4.05 2.75-6.63 2.75zM37.5 57c-1.56 0-2.9-.55-3.98-1.64-1.1-1.1-1.65-2.42-1.65-3.98 0-1.57.55-2.9 1.65-4 1.1-1.08 2.42-1.63 3.98-1.63s2.9.55 3.98 1.64c1.1 1.08 1.65 2.4 1.65 3.98 0 1.56-.55 2.9-1.65 3.98-1.1 1.1-2.42 1.64-3.98 1.64zm18.75-7.5H46.7c-.43-2.15-1.5-3.93-3.22-5.33-1.72-1.45-3.7-2.17-5.98-2.17-2.27 0-4.26.72-5.98 2.17-1.72 1.4-2.8 3.18-3.22 5.33h-2.05v-30h15.47l3.34 11.78c.08.27.2.52.4.76.24.23.52.4.83.47l9.95 3.35V49.5zM39.37 28.87h-5.62v-3.75c0-.5-.2-.93-.6-1.28-.34-.4-.77-.6-1.27-.6s-.96.2-1.35.6c-.35.35-.53.78-.53 1.3v5.6c0 .52.18.97.53 1.36.4.35.84.52 1.34.52h7.5c.5 0 .94-.17 1.3-.52.38-.4.58-.84.58-1.35 0-.5-.2-.94-.6-1.3-.34-.38-.77-.57-1.27-.57zM16.88 12H15v-1.88c0-.5-.2-.93-.6-1.28-.34-.4-.77-.6-1.28-.6-.5 0-.95.2-1.34.6-.35.35-.53.78-.53 1.3v3.73c0 .5.18.96.53 1.35.4.35.84.53 1.35.53h3.74c.5 0 .94-.18 1.3-.53.38-.4.58-.84.58-1.35 0-.5-.2-.93-.6-1.28-.34-.4-.77-.6-1.27-.6z"/></svg>