<svg xmlns="http://www.w3.org/2000/svg" width="36" height="37" fill="none"><path fill="#333" d="M35.23 19.45l-6.2-2.08-2.07-7.3c-.07-.25-.2-.43-.42-.57-.18-.17-.4-.25-.66-.25H15.74V8.12c0-1.07-.2-2.1-.63-3.05-.4-.96-.96-1.8-1.7-2.5-.7-.73-1.53-1.3-2.5-1.7C9.98.48 8.96.26 7.9.26c-1.08 0-2.1.2-3.06.63-.96.4-1.8.96-2.53 1.7C1.57 3.27 1 4.1.6 5.07.2 6.02 0 7.04 0 8.1c0 1.08.2 2.1.6 3.06.42.96.98 1.8 1.7 2.53.7.72 1.56 1.28 2.52 1.7.96.4 1.98.6 3.05.6 1.1 0 2.14-.2 3.1-.63.96-.42 1.8-1 2.53-1.76v15.9H2.25V18.25c0-.3-.12-.56-.35-.77-.2-.24-.47-.36-.77-.36-.3 0-.58.12-.8.36-.22.2-.33.47-.33.77v12.38c0 .3.1.57.32.8.23.2.5.32.8.32h15.86c.26 1.3.9 2.36 1.93 3.2 1.05.87 2.24 1.3 3.6 1.3 1.36 0 2.55-.43 3.6-1.3 1.02-.84 1.66-1.9 1.92-3.2h6.86c.3 0 .56-.1.77-.32.23-.23.35-.5.35-.8V20.5c0-.23-.07-.45-.2-.63-.15-.2-.34-.35-.57-.42zm-27.35-5.7c-1.55 0-2.88-.55-3.98-1.65C2.8 11 2.25 9.67 2.25 8.13c0-1.55.55-2.88 1.65-3.98C5 3.05 6.33 2.5 7.88 2.5c1.54 0 2.87.55 3.97 1.65 1.1 1.1 1.65 2.43 1.65 3.97 0 1.55-.55 2.88-1.65 3.98-1.1 1.1-2.43 1.65-3.97 1.65zM22.5 34c-.94 0-1.73-.33-2.4-.98-.65-.66-.98-1.46-.98-2.4 0-.93.33-1.73 1-2.4.65-.64 1.44-.97 2.38-.97s1.73.33 2.4.98c.65.66.98 1.46.98 2.4 0 .93-.33 1.73-1 2.4-.65.64-1.44.97-2.38.97zm11.25-4.5h-5.73c-.26-1.3-.9-2.36-1.93-3.2-1.05-.87-2.24-1.3-3.6-1.3-1.36 0-2.55.43-3.6 1.3-1.02.84-1.66 1.9-1.92 3.2h-1.23v-18h9.28l2 7.07c.05.16.13.3.25.45.14.14.3.24.5.28l5.97 2v8.2zM23.62 17.12h-3.37v-2.25c0-.3-.12-.56-.35-.77-.2-.23-.47-.35-.77-.35-.3 0-.58.12-.8.35-.22.2-.33.47-.33.78v3.37c0 .3.1.57.32.8.23.22.5.32.8.32h4.5c.3 0 .57-.1.78-.3.23-.25.35-.52.35-.82 0-.3-.12-.56-.35-.77-.2-.24-.47-.36-.77-.36zM10.13 7H9V5.87c0-.3-.12-.56-.35-.77-.2-.23-.47-.35-.78-.35-.3 0-.57.12-.8.35-.2.2-.32.47-.32.78v2.25c0 .3.1.57.32.8.23.2.5.32.8.32h2.25c.3 0 .57-.1.78-.32.23-.23.35-.5.35-.8 0-.3-.12-.57-.35-.78-.2-.23-.47-.35-.78-.35z"/></svg>