<svg xmlns="http://www.w3.org/2000/svg" width="245" height="117" fill="none"><path fill="#FFC139" d="M1.77 82.55c-.16-.3-.33-.73-.5-1.3-.18-.6-.35-1.3-.5-2.14-.1-.43 0-1.17.3-2.2.3-1.04.8-2.3 1.5-3.8.57-1.37 1.15-2.53 1.73-3.47.58-.94 1.1-1.7 1.56-2.24.46-1.2 1.04-2.5 1.72-3.97.68-1.46 1.56-3.07 2.65-4.84 1.4-2.23 2.5-4.05 3.32-5.47.85-1.46 1.42-2.53 1.72-3.22.26-.34.57-.8.93-1.36.38-.6.8-1.28 1.25-2.03.44-.64.85-1.15 1.24-1.52.38-.4.8-.65 1.24-.74.6.02 1.18.06 1.72.12 1.43.05 2.58.4 3.43 1.03.87.6 1.43 1.52 1.65 2.7.23 1.15.38 2.3.47 3.44.08 1.1.1 2.24.05 3.37-.02.4 0 .97.08 1.7.1.67.23 1.45.4 2.35.05.25.1.53.1.82.06.26.08.55.08.88-.03.37-.03.7 0 1 0 .26.03.47.06.63l.3 1.58c.08.42.13.92.14 1.52 0 .56 0 1.18-.04 1.84.05.96.06 1.72.04 2.28 0 .57.02.95.02 1.14-.05.58-.1 1.25-.16 2.02 0 .77-.07 1.7-.15 2.82l.9 1.6c0 .38.02 1.35.03 2.94 0 1.6.03 3.8.07 6.6.03 2.02 0 3.8-.06 5.34-.1 1.5-.25 2.73-.5 3.67-.1.65-.16 1.56-.17 2.72.02 1.15.1 2.6.2 4.34-.2.78-.4 1.72-.62 2.8-.22 1.03-.45 2.22-.7 3.56-.3.52-.6 1.08-.96 1.67-.34.63-.74 1.3-1.2 2.03-.4.97-.88 1.72-1.4 2.26-.5.52-1.04.84-1.6.95-.46.1-.82.06-1.08-.1-.26-.14-.43-.42-.5-.84-.07-.35-.13-.8-.17-1.36 0-.53.04-1.2.16-1.97.13-1.05.26-2.17.4-3.36.1-1.58.13-3 .12-4.25.02-1.27.05-2.36.07-3.26-.06-.5-.14-1.15-.2-1.9s-.13-1.63-.23-2.64c0-.23.02-.67.1-1.3.1-.66.13-1.16.06-1.5-.17-.88-.3-2.42-.4-4.66-.07-2.24-.08-5.17-.05-8.8 0-.22-.04-.52-.07-.87 0-.37.02-.82.08-1.36-.27-.37-.5-.7-.7-1 0-.4-.03-.9-.08-1.53-.02-.62-.1-1.32-.26-2.1-.2-1.07-.34-2.7-.4-4.88-.02-2.2-.13-3.8-.32-4.82-.13-.67-.3-1.17-.5-1.5-.2-.36-.42-.5-.68-.46l-.53.3c-1.56 2.22-2.83 3.98-3.8 5.26-1 1.25-1.73 2.02-2.2 2.3-.4.95-.92 2-1.6 3.15-.63 1.12-1.44 2.35-2.4 3.7-.76 1.07-1.52 2.14-2.27 3.22-.72 1.07-1.46 2.14-2.22 3.2l-.7-.1zm66.1-39.1c-.32.37-.8.78-1.4 1.22-.58.45-1.28.92-2.1 1.4-.78.35-1.78.76-3 1.23-1.22.43-2.68.93-4.4 1.5-2.45.7-4.53 1.4-6.25 2.14-1.68.72-2.95 1.55-3.8 2.47-1.16 1.23-1.9 2.72-2.27 4.48-.33 1.75-.26 3.8.2 6.18.2 1.02.7 1.98 1.5 2.9.8.9 1.9 1.7 3.3 2.44 1.14.54 2.28 1.07 3.44 1.57 1.17.47 2.33.98 3.46 1.52 1.35.6 3 1.35 4.97 2.27 2 .87 4.3 1.9 6.96 3.08 2.34 1 4.2 2.28 5.54 3.8 1.35 1.5 2.23 3.3 2.64 5.4.4 2.12.02 4.2-1.14 6.25-1.13 2.04-3.05 4.04-5.76 5.98-2.2 1.6-4.46 2.9-6.75 3.94-2.28 1.07-4.63 1.84-7.06 2.3-.4.08-.83.1-1.34.06-.5 0-1.05-.06-1.67-.17-1 .03-1.98.07-2.96.13-.95.08-1.9.15-2.85.2-1.25 0-2.27-.2-3.05-.65-.76-.46-1.22-1.16-1.4-2.12-.05-.22-.08-.45-.1-.68.03-.27.06-.52.1-.77 1.25-.42 2.56-.9 3.92-1.4 1.4-.5 2.87-1.02 4.42-1.58.8-.35 2.06-.98 3.8-1.88 1.75-.93 4-2.13 6.78-3.6.6-.34 1.2-.67 1.8-.98.62-.36 1.27-.7 1.93-1.07.83-.5 1.45-1.02 1.84-1.56.38-.57.52-1.1.42-1.63-.1-.56-.32-1.07-.64-1.5-.32-.47-.77-.82-1.34-1.04-.35-.1-.75-.28-1.2-.56-.46-.3-1-.66-1.6-1.04-.84-.43-1.87-.95-3.08-1.54-1.2-.6-2.56-1.25-4.05-1.96-2.08-1.02-3.82-1.88-5.2-2.57-1.38-.74-2.44-1.32-3.18-1.74-1.35-.8-2.67-1.65-3.98-2.56-1.27-.92-2.54-1.92-3.8-3-.5-.47-.95-1.13-1.38-1.97-.4-.85-.7-1.85-.93-3-.2-1.62-.4-3-.55-4.17-.16-1.17-.23-2.12-.2-2.85-.1-1.33-.02-2.57.23-3.7.28-1.2.65-2.28 1.12-3.26.25-.78.48-1.5.7-2.12.45-1.72.82-3.05 1.1-4 .32-.95.52-1.56.6-1.8.4-.7 1-1.3 1.8-1.74.8-.5 1.83-.85 3.08-1.1.9-.16 2.25-.46 4.06-.87 1.83-.45 3.18-.76 4.04-.92 1.15-.4 2.32-.78 3.5-1.17.36-.03.7-.06.98-.08.26-.05.77-.14 1.55-.25.77-.12 1.8-.3 3.12-.55.62-.1 1.1-.13 1.47-.14.33-.03.6-.05.83-.06.23 0 .43-.03.6-.06L68 35.43c.56.12 1 .33 1.32.64.35.26.57.62.65 1.06.04.26 0 .65-.13 1.17-.13.52-.34 1.16-.63 1.9-.44 1-.9 2.08-1.36 3.26zm8.3-2.1c.14-.48.27-1.13.38-1.95.13-.85.25-1.84.37-2.95.06-.58.12-1.1.2-1.58.07-.48.14-.9.2-1.24.17-.66.32-1.3.43-1.92.14-.6.3-1.26.47-1.92.15-.26.5-.56 1.02-.9.56-.36 1.33-.84 2.3-1.43l2 .76c.54-.62 1.07-1.14 1.6-1.54.5-.4 1.03-.65 1.54-.75.66.02 1.17.06 1.5.12l.83-.4c.7-.14 1.4.16 2.12.88.7.7 1.44 1.83 2.24 3.4.7 1.22 1.24 2.38 1.6 3.47.42 1.05.7 2 .87 2.87.22 1.15.35 2.5.4 4.1.06 1.57.08 3.4.05 5.5-.06 2.24-.2 4.1-.37 5.55-.17 1.45-.46 2.55-.85 3.28-.32.56-.68 1.3-1.07 2.2-.35.9-.75 1.93-1.2 3.1-.12.7-.27 1.3-.44 1.8-.17.5-.33.92-.5 1.28-.3.7-.62 1.23-.98 1.63-.32.35-.67.6-1.04.74-.5.2-.97.42-1.42.67-.45.26-.86.54-1.23.84-1.22 0-2.3.03-3.26.1-.43-.03-.96-.14-1.6-.35-.64-.25-1.4-.6-2.24-1.07-.86-.5-1.52-.97-1.97-1.4-.43-.5-.64-.95-.62-1.4-.07-.5-.08-.93-.05-1.27-.3-.84-.56-1.53-.8-2.08-.26-.5-.43-.88-.52-1.2-.06-.32-.1-.56-.1-.72l-.07-1.98c-.24-1.08-.54-2.13-.9-3.15-.05-.23.07-2.06.33-5.5.26-3.45.53-5.3.82-5.57zm9.55-6.7c-.16.03-.38.14-.68.33-.3.2-.68.48-1.17.87-1.36 1.03-2.34 2.23-2.94 3.6-.6 1.38-.76 2.93-.5 4.67l.23 1.15c.3.9.64 1.75 1 2.55l-.46 2.57c.18.75.42 1.48.72 2.2.1.5.16 1.25.2 2.24.04.98.1 1.7.2 2.15.25 1.27.7 2.18 1.32 2.72.66.5 1.52.65 2.57.45.2-.04.42-.15.65-.33.26-.18.58-.5.96-.93.55-.5 1.05-1.03 1.54-1.62.76-2.04 1.34-3.7 1.73-4.96.38-1.27.64-2.1.76-2.5.2-1.02.25-2.2.16-3.55-.07-1.34-.25-2.82-.56-4.42-.5-2.65-1.25-4.58-2.2-5.8-.94-1.2-2.1-1.67-3.52-1.4zm29.62-18.18c.16-.04.28 0 .37.12.13.07.2.22.25.44.1.52.12 1.16.07 1.93-.05.77-.16 1.67-.33 2.7-.3 1.4-.5 2.53-.65 3.35-.14.83-.23 1.3-.27 1.45-.3 3.24-.76 6.14-1.36 8.7-.57 2.54-1.3 4.78-2.24 6.7-.22.55-.47 1.23-.75 2.04-.27.83-.53 1.72-.77 2.7-.23 1.2-.46 2.2-.67 2.96-.23.77-.43 1.36-.62 1.76-.64 1.65-1.34 3.72-2.08 6.22-.75 2.5-1.62 5.45-2.63 8.86-.34.8-.73 1.8-1.16 3-.42 1.2-.9 2.6-1.46 4.22-.08.48-.18.98-.3 1.5-.1.5-.23 1-.36 1.56-1.14 2.3-2.06 4.6-2.74 6.9-.67 2.24-1.1 4.48-1.3 6.7-.04.28-.1.67-.12 1.18 0 .5-.07 1.04-.18 1.62-.05.3-.12.72-.2 1.24-.08.5-.2 1.1-.36 1.8-.77.8-1.42 1.44-1.93 1.87-.48.4-.8.64-.96.67-.43.08-.83-.2-1.2-.8-.4-.6-.7-1.6-.98-2.96-.1-.53-.06-1.44.12-2.7.2-1.3.5-2.93.95-4.9.06-.68.2-1.54.44-2.58.26-1.04.62-2.26 1.1-3.64.22-.5.44-1.03.63-1.57.2-.52.34-1.06.43-1.6l2.03-9.6c.17-.5.4-1.17.66-2.02.26-.84.52-1.82.77-2.93.06-.2.25-.78.57-1.7.3-.92.82-2.18 1.5-3.77.12-.26.25-.7.4-1.32.18-.63.36-1.4.55-2.3.4-1.07.8-2.2 1.18-3.36.4-1.2.8-2.47 1.16-3.8.87-3.4 1.67-6.62 2.4-9.7.1-.46.2-.92.4-1.38.16-.5.3-1 .45-1.48.1-.65.25-1.4.45-2.28.22-.9.48-1.96.77-3.18.14-.86.24-1.72.3-2.6.06-.87.16-1.75.3-2.64.14-1.25.4-2.23.72-2.92.35-.73.84-1.22 1.45-1.47.3-.1.67-.27 1.1-.5.44-.27.92-.6 1.44-1 .55-.43 1.03-.77 1.45-1 .44-.27.82-.42 1.14-.48zm-3.38 46.2l.24-.05c.06-.5.17-1.18.3-2 .15-.82.28-1.78.4-2.86.12-1.08.23-2.02.3-2.8.1-.77.2-1.4.3-1.84.26-.88.58-1.62.96-2.22.42-.6.88-1.07 1.38-1.36.17-.14.4-.25.68-.33.32-.1.67-.25 1.05-.5l2 .77c.52-.67 1.05-1.2 1.58-1.55.55-.4 1.05-.65 1.5-.74.16-.03.36-.04.6 0 .23 0 .52.05.86.12l.9-.52c.7-.14 1.42.17 2.13.93.7.74 1.44 1.9 2.2 3.46.66 1.2 1.2 2.34 1.6 3.42.44 1.08.75 2.05.9 2.9.23 1.13.36 2.48.4 4.07.04 1.58.05 3.43.03 5.56-.03 2.3-.15 4.16-.37 5.6-.2 1.43-.46 2.5-.8 3.18-.3.63-.65 1.4-1.04 2.3-.36.86-.78 1.88-1.25 3.07-.16.63-.33 1.2-.5 1.74-.17.48-.33.93-.5 1.32-.28.7-.6 1.23-.92 1.63-.32.36-.7.6-1.1.7-.5.23-.96.47-1.4.72-.45.26-.86.55-1.23.9-1.23-.04-2.3-.03-3.23 0-.43 0-.97-.12-1.6-.33-.65-.24-1.38-.6-2.2-1.06-.9-.5-1.56-.96-2-1.4-.43-.5-.65-.94-.67-1.37-.03-.48-.06-.9-.1-1.22-.02-.16-.1-.4-.23-.75-.1-.37-.28-.84-.52-1.4-.2-.55-.4-1.17-.56-1.87l-.04-2.03c-.56-1.88-.86-2.93-.9-3.16.05-1.96.13-3.8.23-5.46.2-1.72.4-3.57.63-5.53zm9.7-6.74c-.62.28-1.1.6-1.47.92-1.48 1.02-2.53 2.25-3.18 3.7-.63 1.4-.83 3.02-.6 4.84.04.4.1.88.2 1.4l1 2.28c-.24.48-.4.88-.47 1.2-.07.3-.1.55-.05.74.06.32.18.8.37 1.42.22.62.36 1.1.42 1.4.08.5.16 1.23.2 2.2.07 1 .15 1.72.24 2.2.25 1.3.7 2.22 1.32 2.73.66.5 1.52.66 2.57.45.16-.03.37-.15.63-.37.25-.2.58-.5.98-.83.5-.53 1-1.1 1.52-1.7.73-2.02 1.3-3.65 1.7-4.9.4-1.23.68-2.08.8-2.53.16-1.04.2-2.22.15-3.57-.02-1.35-.2-2.83-.5-4.43-.5-2.65-1.24-4.58-2.2-5.8-.97-1.2-2.18-1.66-3.65-1.37zm38.84 9.87c.18-.27.36-.6.55-1 .15-.43.34-.9.57-1.4l3.2-3.26c.35-.63.9-1.45 1.67-2.46.75-1.04 1.7-2.3 2.84-3.78.1-.38.27-.83.54-1.35.3-.55.65-1.1 1.07-1.65.37-.5.74-.97 1.12-1.4.38-.48.72-.92 1.04-1.35.4-.57.75-1.14 1.07-1.7.36-.56.72-1.1 1.08-1.64.42-.54.88-1 1.38-1.35.5-.36 1.06-.6 1.7-.73.7-.14 1.25-.14 1.63-.02.42.1.67.3.77.6-.18.8-.38 1.6-.6 2.4l.38.38c1.32-.82 2.34-1.43 3.1-1.84.74-.4 1.23-.63 1.45-.68 2.34-.45 4.22-.06 5.64 1.15 1.45 1.2 2.45 3.22 3 6.1.1.54.17 1.2.18 1.95.02.76-.04 1.6-.16 2.52-.13 1.02-.33 1.9-.6 2.6-.22.7-.47 1.23-.73 1.58.2.4.4.67.6.83.2.13.4.17.67.12.25-.05.5-.18.72-.4.25-.2.53-.5.86-.9.45.64.9 1.32 1.33 2.03.45.67.9 1.35 1.38 2.02-.48.62-.94 1.23-1.4 1.8-.45.6-.93 1.17-1.45 1.73-.62.75-1.24 1.34-1.85 1.75-.6.38-1.2.63-1.85.76-.73.13-1.38.07-1.92-.2-.54-.25-1.02-.67-1.43-1.25-.6 1.2-1.38 2.37-2.36 3.48-.94 1.08-2.05 2.04-3.3 2.88-.74.55-1.42 1-2.05 1.35-.6.3-1.17.52-1.7.63-.17.03-.48.15-.94.37-.4.22-.76.35-1.05.4-1.82.36-3.62-.1-5.38-1.34-1.77-1.24-2.83-2.8-3.2-4.7-.14-.77-.16-1.8-.05-3.12.1-1.35.13-2.13.1-2.36-.05-.22-.16-.38-.35-.48-.16-.13-.37-.18-.62-.13-.16.04-.5.36-1 .95-.53.6-1.26 1.45-2.2 2.57-.08.14-.15.36-.23.64-.08.28-.23.6-.46.98-.4-.7-.82-1.37-1.28-2.04-.47-.7-.97-1.37-1.48-2zm21.37-13.22c-.16.06-.36.28-.62.67-.23.34-.45.76-.65 1.27-.3.82-.66 1.7-1.07 2.7-.28.44-.6.82-.98 1.12-.34.27-.77.5-1.26.7-.32.08-.6.47-.83 1.14-.24.65-.43 1.56-.57 2.75-.16 1.06-.25 1.95-.27 2.7-.03.72 0 1.33.1 1.8.17.9.52 1.53 1.06 1.9.52.35 1.25.44 2.18.27 1.47-.3 2.74-.95 3.8-1.98 1.08-1.07 2-2.53 2.78-4.36.4-.7.77-1.38 1.1-2 .23-.25.38-.6.46-1.04.07-.48.13-1.05.16-1.72l.34-2.9c-.47-.9-.9-1.6-1.25-2.1-.37-.52-.7-.83-.97-.9-.18-.07-.55-.1-1.1-.1-.58 0-1.4 0-2.43.08zm13.34 6.53c.1-.24.22-.5.4-.8.13-.34.3-.72.52-1.16.55-1.26 1-2.34 1.37-3.24.34-.93.58-1.64.72-2.13.3-.92.47-1.85.56-2.8.1-.95.16-1.92.13-2.9-.23-4.7-.06-9.82.53-15.37.6-5.55 1.53-11.58 2.83-18.1.5-2.28 1.14-4.05 1.96-5.3.82-1.28 1.77-2.03 2.85-2.24.84-.16 1.54-.1 2.12.14.56.22 1 .68 1.3 1.4.12.26.26.75.43 1.45.2.7.4 1.6.62 2.7.05.27.24 2.6.56 7-.1 2.25-.3 5.06-.6 8.44-.33 3.33-.77 7.23-1.34 11.68-.2.64-.43 1.44-.67 2.42-.26.97-.56 2.14-.93 3.5-.05.25-.1.57-.16.98-.02.37-.1.8-.2 1.28-.17.27-.36.7-.54 1.25-.16.57-.34 1.27-.55 2.1-.22 1.9-.34 4.27-.36 7.1 0 2.8.15 6.1.42 9.9.22 3.58.48 6.74.78 9.5.3 2.8.65 5.2 1.04 7.2.18.77.4 1.56.66 2.37.28.97.52 1.7.72 2.2.23.52.44.76.63.72.44-.1.94-1.22 1.48-3.38.6-2.13 1.25-5.3 2-9.53l-.33-.94c.07-.32.17-.72.3-1.2.18-.5.28-1.12.3-1.85.3-2.7.52-4.8.63-6.28.1-1.5.2-2.37.25-2.58.2-1.37.53-2.73 1-4.08.5-1.35 1.1-2.66 1.78-3.92.68.87 1.22 1.64 1.66 2.32.42.68.8 1.25 1.12 1.72-.34.66-.62 1.48-.87 2.46-.24.94-.4 1.96-.44 3.07-.12.96-.2 1.93-.23 2.94 0 .96-.05 1.9-.1 2.8-.43 6.4-1.02 11.78-1.78 16.1-.75 4.36-1.62 7.66-2.62 9.9-.14.47-.33.93-.57 1.4-.2.48-.4.93-.6 1.37-.3.5-.63.9-1 1.2-.37.33-.77.54-1.22.63-1.38.26-2.54.17-3.48-.27-.92-.46-1.66-1.26-2.2-2.4-.37-1-.7-2-1.03-3-.3-.97-.6-1.94-.9-2.9-.32-.6-.6-1.25-.83-1.94-.22-.65-.42-1.4-.58-2.22l-1.4-7.3c-.07-.34-.1-.9-.12-1.66.02-.76 0-1.34-.1-1.72-.36-.93-.74-1.86-1.13-2.82-.12-1.13-.23-2.57-.33-4.3-.07-1.75-.14-3.74-.2-6l-1.46-.85c-.2-.4-.55-.92-1-1.6-.47-.67-1.06-1.48-1.77-2.44zm12.7-35.85c-.2.04-.32.2-.37.47-.02.23-.06.6-.14 1.07.02.3 0 .77-.1 1.35-.08.58-.2 1.32-.36 2.2-.12.76-.2 1.42-.27 2-.02.53 0 .96.05 1.28l.4.32.6-.86c-.07-.5-.04-1.05.07-1.66.1-.62.28-1.34.52-2.14.2-.74.32-1.36.4-1.87.06-.5.06-.92 0-1.24-.07-.4-.18-.66-.3-.8-.13-.14-.3-.2-.53-.15zm10.5 31.4c.1-.26.23-.53.4-.83.14-.33.3-.7.53-1.15.55-1.26 1-2.35 1.36-3.24.34-.93.6-1.64.73-2.13.28-.92.47-1.85.55-2.8.12-.95.16-1.92.14-2.9-.24-4.7-.07-9.82.52-15.37.6-5.55 1.53-11.58 2.83-18.1.5-2.28 1.14-4.05 1.96-5.3.8-1.28 1.76-2.03 2.85-2.24.83-.17 1.54-.12 2.12.13.57.22 1 .68 1.3 1.4.13.26.27.75.44 1.45.2.7.4 1.6.62 2.7.05.27.23 2.6.55 7-.1 2.25-.3 5.06-.6 8.44-.32 3.34-.76 7.24-1.33 11.7-.2.63-.44 1.43-.68 2.4-.25.98-.56 2.15-.92 3.52-.06.24-.1.56-.16.97-.03.38-.1.8-.2 1.3-.18.26-.37.68-.56 1.24-.16.56-.34 1.26-.54 2.1-.23 1.9-.36 4.26-.38 7.08.02 2.82.16 6.12.42 9.92.22 3.57.5 6.73.8 9.5.3 2.78.64 5.2 1.03 7.2.17.76.4 1.55.64 2.36.3.97.53 1.7.72 2.2.23.52.45.76.64.72.45-.1.94-1.2 1.5-3.37.57-2.13 1.24-5.3 1.98-9.53l-.33-.93c.07-.33.18-.73.32-1.22.17-.5.26-1.1.3-1.84.3-2.72.5-4.8.62-6.3.1-1.5.18-2.36.24-2.58.2-1.36.53-2.72 1-4.07.5-1.36 1.1-2.67 1.78-3.93.66.87 1.2 1.64 1.64 2.32.43.67.8 1.24 1.13 1.7-.35.67-.64 1.5-.88 2.47-.25.94-.4 1.96-.45 3.07-.12.95-.2 1.92-.24 2.93 0 .96-.04 1.9-.1 2.8-.42 6.4-1 11.78-1.77 16.1-.75 4.36-1.63 7.66-2.62 9.9-.14.47-.34.93-.58 1.4-.2.48-.4.93-.58 1.37-.3.5-.64.88-1 1.2-.38.32-.8.53-1.23.62-1.38.26-2.54.17-3.5-.27-.9-.47-1.64-1.27-2.2-2.42-.35-1-.7-2-1-3-.3-.96-.6-1.93-.92-2.9-.32-.6-.6-1.24-.82-1.93-.22-.65-.4-1.4-.57-2.22l-1.4-7.3c-.07-.34-.1-.9-.13-1.66.02-.77 0-1.34-.08-1.72-.38-.93-.76-1.86-1.14-2.82-.12-1.13-.23-2.57-.33-4.3-.07-1.75-.14-3.74-.2-6l-1.47-.85c-.2-.4-.54-.92-1-1.6-.46-.67-1.05-1.48-1.77-2.44zm12.7-35.87c-.2.04-.3.2-.36.47-.02.23-.07.6-.14 1.07.03.32 0 .78-.1 1.36-.07.58-.2 1.3-.36 2.2-.12.76-.2 1.42-.26 2-.03.53 0 .96.05 1.28l.4.32.6-.86c-.07-.48-.05-1.04.07-1.65.1-.62.3-1.34.53-2.15.2-.73.32-1.35.4-1.86.05-.5.06-.93 0-1.24-.08-.4-.18-.65-.3-.8-.13-.13-.3-.18-.53-.14z"/></svg>