<svg xmlns="http://www.w3.org/2000/svg" width="185" height="85" fill="none"><path fill="#FFC139" d="M.72 60.5c.58-.75 1.03-1.33 1.35-1.76.3-.42.56-.8.73-1.1.42-.56.75-1.1.98-1.62.24-.5.34-.94.3-1.3.08-1.14.15-2.56.22-4.27.07-1.7.2-3.68.4-5.94.16-.68.3-1.54.45-2.56.16-1.06.3-2.23.46-3.52.1-1.68.3-3.22.6-4.64.33-1.42.74-2.73 1.25-3.92.16-.33.32-.73.46-1.18.15-.5.28-1.05.4-1.67.1-.54.3-1.2.56-1.94.28-.78.58-1.7.92-2.7.94-2.18 1.77-4.05 2.5-5.6.72-1.58 1.33-2.84 1.8-3.8.9-1.6 1.8-3.1 2.72-4.5.95-1.44 1.92-2.78 2.9-4.03.9-1.14 1.72-2 2.44-2.56.7-.6 1.3-.95 1.8-1.04.5.3.9.58 1.15.87.22-.05.43-.12.65-.23.83-.16 1.5.06 2 .66.52.6.9 1.55 1.16 2.86.06.28.1.67.1 1.17-.02.46-.04 1.05-.07 1.75-.18.27-.3.58-.32.95 0 .37-.03.74-.02 1.1.05.46.08.85.08 1.18 0 .34-.03.64-.08.9-.27.86-.53 1.9-.8 3.1-.27 1.18-.53 2.56-.8 4.13-.2.6-.47 1.4-.77 2.4-.3.98-.7 2.08-1.15 3.3-.2.66-.47 1.5-.8 2.54-.3.98-.73 2.14-1.27 3.47-.1.48-.35 1.04-.72 1.67-.35.6-.78 1.3-1.28 2.14-.1.56-.47 1.54-1.12 2.96-.63 1.4-1.53 3.26-2.7 5.55-.6 1.14-1.34 2.57-2.28 4.27-.93 1.7-2 3.72-3.2 6.04-.15 2.52-.2 4.75-.16 6.7.07 1.9.24 3.55.5 4.93.1.54.22.95.34 1.23.14.23.33.33.55.3.13-.27.3-.57.53-.9.27-.36.52-.76.77-1.2.5-.66 1-1.8 1.53-3.43.54-1.63 1.12-3.7 1.73-6.25.52-2.3 1.04-4.06 1.56-5.32.5-1.3.98-2.1 1.42-2.4l1.54-1.06c.3-.2.56-.35.8-.5.24-.14.43-.23.6-.26.4-.08.84.1 1.3.54.44.45.87 1.1 1.26 1.95.73 1.55 1.3 2.74 1.74 3.6.42.8.66 1.3.73 1.44.6.88 1.24 1.5 1.9 1.83.7.33 1.45.4 2.3.25.95-.35 2.07-.8 3.36-1.34.38.6.8 1.23 1.26 1.9.5.67 1 1.38 1.5 2.15-.66.66-1.35 1.3-2.06 1.94-.67.6-1.35 1.24-2.02 1.87-.46.38-1.15.75-2.08 1.1-.93.3-2.04.6-3.32.83-1.95.38-3.64-.24-5.08-1.85-1.4-1.65-2.23-2.44-2.44-2.37l-.3.06c-.38.74-.8 1.5-1.24 2.28-.42.77-.83 1.58-1.23 2.42-.2.8-.54 1.75-1 2.83-.45 1.08-1 2.28-1.7 3.6-.8 1.5-1.54 2.63-2.2 3.42-.7.78-1.3 1.23-1.9 1.35-1.2.23-2.2.27-2.95.12-.72-.13-1.2-.45-1.43-.97-.73-1.72-1.33-3.2-1.8-4.47-.46-1.3-.77-2.43-.95-3.35-.06-.3-.1-.55-.1-.78 0-.23-.02-.44-.02-.64 0-.44.04-.9.07-1.4-.03-.17-.1-.27-.2-.32-.1-.08-.22-.1-.42-.07-.07.15-.17.32-.3.5-.13.2-.32.42-.57.67-.2-.4-.54-.93-1-1.6-.46-.68-1.05-1.5-1.76-2.45zm22.63-50.3c-.35.06-.93.83-1.74 2.3-.8 1.46-1.8 3.57-2.95 6.35-.66 1.55-1.3 3.1-1.94 4.65-.62 1.5-1.25 3-1.86 4.5-.3.44-.52.88-.64 1.3-.1.42-.1.83 0 1.25-.3 1.9-.6 3.7-.9 5.4-.26 1.8-.48 3.2-.7 4.2-.16 1-.27 1.58-.3 1.75l.3.2c.52-.7.94-1.4 1.27-2.14.5-.86 1.08-1.95 1.75-3.27.7-1.37 1.48-2.95 2.32-4.74.87-1.7 1.7-3.77 2.48-6.24.78-2.5 1.6-5.36 2.43-8.57.5-1.76.83-3.15 1.03-4.18.23-1.04.3-1.75.24-2.14-.05-.22-.13-.4-.25-.5-.1-.14-.27-.2-.52-.14zm13.7 41.1l3.8-3.7c.12-.2.28-.44.45-.74.17-.33.35-.78.54-1.35.14-.45.36-.85.66-1.2.33-.37.7-.7 1.14-1.03.2-.37.5-.84.88-1.4.38-.58.88-1.26 1.5-2.04.3-.26.7-.6 1.18-1.07.47-.5.97-1.1 1.5-1.83 2.37-3.3 4.5-5.86 6.42-7.65 1.94-1.8 3.66-2.85 5.16-3.14.84-.16 1.48-.1 1.93.18.5.27.8.73.92 1.37.13.66.1 1.28-.04 1.84-.13.55-.4 1.05-.86 1.5-.7.73-1.43 1.54-2.22 2.42-.38.77-.86 1.6-1.45 2.52-.6.87-1.32 1.78-2.17 2.7-.24.48-.44.9-.6 1.26-.13.2-.38.54-.74 1.04-.37.5-.87 1.1-1.5 1.78-.18.76-.7 1.8-1.58 3.14-.84 1.32-2 2.94-3.5 4.85-.18.27-.48.85-.9 1.76-.42.92-.97 2.12-1.64 3.6l.42.38c.66-.36 1.32-.9 1.98-1.58.66-.7 1.37-1.57 2.13-2.64.9-1.2 1.62-2.17 2.17-2.9.58-.78 1-1.3 1.25-1.54.2-.17.4-.34.6-.5.2-.2.42-.4.67-.64 1.13-2.04 2.26-3.6 3.38-4.68 1.1-1.1 2.2-1.77 3.3-1.98.66-.13 1.23.05 1.7.52.44.45.8 1.2 1.06 2.23.24 1.6.5 3.15.8 4.62.16 1.02.6 1.9 1.34 2.62.76.68 1.62.93 2.58.74.3-.05.55-.2.77-.4.26-.2.5-.47.74-.78.18-.33.34-.65.48-.94.18-.3.35-.6.52-.9.12-.08.27-.23.47-.43.22-.2.42-.44.6-.7.64.87 1.17 1.64 1.6 2.32.45.64.8 1.22 1.08 1.73-.6.82-1.2 1.66-1.8 2.54-.57.83-1.2 1.64-1.87 2.44-.8.92-1.63 1.65-2.46 2.2-.82.53-1.68.88-2.58 1.05-2.08.4-3.8.1-5.14-.86-1.34-.96-2.34-2.63-3-5-.05-.28-.15-.55-.3-.82-.13-.3-.35-.6-.67-.87-.13.2-.27.4-.43.63-.16.2-.34.46-.54.8-.35.4-.8.9-1.35 1.5-.5.6-1.1 1.3-1.8 2.15-.9 1.36-1.67 2.5-2.3 3.37-.62.88-1.06 1.5-1.32 1.9-.54.66-1.18 1.35-1.94 2.06-.73.7-1.56 1.44-2.5 2.22-.6.48-1.13.87-1.58 1.15-.43.32-.76.5-1 .54-1.52.3-2.73.15-3.6-.45-.9-.62-1.48-1.72-1.78-3.3-.17-.85-.13-1.7.1-2.54.2-.87.6-1.74 1.2-2.62-.03-.42-.06-.77-.1-1.02-.04-.16-.12-.3-.24-.45-.1-.2-.24-.38-.4-.58-.3-.4-.6-.87-.92-1.37-.37-.52-.76-1.08-1.17-1.66.1-.17.25-.44.44-.84.14-.43.32-.95.54-1.55zm35.78-4.7c.48-.95 1.1-2.1 1.87-3.44.8-1.38 1.77-2.96 2.92-4.74.04-.3.1-.67.2-1.08.07-.45.2-1 .4-1.67 1.22-2.85 2.27-5.58 3.16-8.17.9-2.6 1.6-5.08 2.14-7.47.18-.6.36-1.33.52-2.2.2-.9.45-1.9.76-3.02.3-.85.62-1.52.96-2.02.36-.5.75-.8 1.17-.87.64-.1 1.16.07 1.55.56.42.48.75 1.3.97 2.45.12.65-.04 2.83-.48 6.56-.42 3.7-1.1 8.93-2.05 15.7-.28 1.66-.5 3.94-.67 6.86-.17 2.88-.32 6.47-.46 10.78 0 .62.04 1.35.06 2.17.06.82.08 1.78.06 2.87-.15 2.15-.22 3.86-.2 5.12 0 1.25.06 2.06.16 2.4l.26.35c.14-.12.26-.46.35-1 .12-.56.17-1.33.14-2.32.03-.9.03-1.66 0-2.3 0-.58-.08-1.07-.22-1.44.35-2 .72-4.5 1.13-7.57.4-3.1.87-6.7 1.4-10.77.34-1.02.7-2.25 1.1-3.7.4-1.46.8-3.18 1.18-5.14.6-.84 1.16-1.48 1.67-1.9.54-.48 1.02-.76 1.43-.84.9-.17 1.78-.1 2.64.24.85.34 1.7.9 2.5 1.7.2.2.6.72 1.2 1.57.63.8 1.45 1.92 2.5 3.35.6.88 1.17 1.54 1.72 2 .54.43 1.02.6 1.44.57l2.87 4.02c-.15.06-.56.26-1.22.58-.64.33-1.57.72-2.8 1.2l-3.5-.58c-.84-.07-1.97-.66-3.38-1.8-1.37-1.1-2.44-1.72-3.18-1.8-.58.6-1.12 1.68-1.62 3.24-.5 1.56-.92 3.53-1.3 5.92-.1.55-.23 1.16-.44 1.83-.17.63-.35 1.36-.52 2.2.04 1.24.04 2.45 0 3.62-.23 1.04-.44 2.34-.64 3.9-.2 1.6-.36 3.47-.5 5.62-.03.72-.24 1.86-.64 3.4-.37 1.52-.55 2.67-.53 3.43.02.46 0 1.08-.1 1.86-.04.76-.18 1.68-.4 2.75-.5 1.42-.98 2.5-1.47 3.26-.47.8-.92 1.24-1.34 1.32-.96.18-1.76-.14-2.42-.98-.66-.83-1.16-2.16-1.52-3.98-.53-2.75-.95-5.8-1.26-9.16-.32-3.35-.52-6.98-.6-10.87-.02-1.12-.03-2.27-.02-3.43 0-1.16.02-2.34.02-3.53.03-1.4-.02-2.67-.14-3.8-.1-1.15-.25-2.16-.48-3.04-.3.15-.77.67-1.4 1.56-.6.83-1.33 2.08-2.2 3.74-.22-.45-.56-1-1.02-1.64-.45-.64-1.04-1.44-1.75-2.4zm33.56-6.46c.47-.96 1.1-2.1 1.86-3.45.8-1.4 1.77-2.97 2.92-4.75.04-.3.1-.66.2-1.08.07-.44.2-1 .4-1.67 1.22-2.85 2.27-5.57 3.16-8.16.9-2.6 1.6-5.1 2.14-7.48.2-.6.36-1.33.53-2.2.2-.9.45-1.9.77-3.02.3-.85.6-1.52.95-2.02.37-.5.76-.8 1.17-.87.63-.13 1.15.06 1.54.54.42.48.75 1.3.97 2.44.13.64-.03 2.83-.47 6.56-.4 3.7-1.1 8.93-2.04 15.7-.3 1.65-.52 3.93-.7 6.85-.16 2.9-.3 6.48-.44 10.78.02.63.04 1.35.07 2.18.05.82.07 1.78.05 2.88-.15 2.15-.22 3.85-.2 5.1 0 1.27.06 2.07.16 2.42l.27.34c.15-.12.26-.46.36-1 .12-.57.17-1.34.15-2.33.03-.9.03-1.65 0-2.28 0-.6-.08-1.07-.22-1.44.35-2 .73-4.52 1.13-7.58.4-3.1.88-6.68 1.42-10.76.33-1.03.7-2.26 1.08-3.7.4-1.46.8-3.18 1.2-5.14.6-.85 1.15-1.5 1.66-1.92.54-.47 1.02-.74 1.44-.82.9-.17 1.77-.1 2.63.24.86.33 1.7.9 2.5 1.7.22.2.62.7 1.2 1.56.63.8 1.46 1.93 2.5 3.35.6.9 1.17 1.56 1.72 2.02.55.42 1.03.6 1.46.56l2.87 4.02c-.16.07-.56.26-1.23.6-.64.3-1.57.7-2.8 1.18l-3.5-.57c-.84-.06-1.97-.66-3.38-1.78-1.37-1.13-2.43-1.73-3.18-1.82-.58.6-1.12 1.7-1.6 3.24-.5 1.56-.94 3.53-1.3 5.92-.1.55-.25 1.16-.45 1.83-.18.62-.36 1.35-.53 2.17.05 1.26.05 2.47 0 3.63-.22 1.04-.44 2.34-.63 3.9-.2 1.6-.36 3.47-.5 5.62-.04.74-.25 1.87-.65 3.4-.37 1.54-.55 2.68-.53 3.44 0 .46-.02 1.08-.1 1.86-.05.77-.2 1.7-.4 2.76-.5 1.43-1 2.5-1.47 3.27-.48.8-.93 1.22-1.34 1.3-.97.2-1.78-.14-2.44-.97-.66-.84-1.16-2.17-1.5-4-.54-2.74-.96-5.8-1.28-9.14-.3-3.36-.52-6.98-.6-10.88-.02-1.12-.02-2.26-.02-3.42 0-1.17.02-2.34.02-3.54.03-1.4-.02-2.66-.14-3.8-.08-1.14-.25-2.16-.48-3.04-.3.16-.77.68-1.4 1.56-.6.85-1.33 2.1-2.2 3.76-.22-.46-.56-1-1.02-1.65-.45-.64-1.03-1.44-1.75-2.4zm33.55-6.47c.6-.9 1.53-2.05 2.82-3.43 1.33-1.38 2.3-2.5 2.9-3.34.36-.66.85-1.47 1.46-2.42.6-.98 1.33-2.13 2.17-3.45.53-.7 1.07-1.27 1.6-1.7.56-.44 1.14-.72 1.74-.83.77-.15 1.4-.07 1.9.23.5.3.85.86 1 1.7.25 1.24.16 3.35-.26 6.3-.43 2.98-.5 5.18-.22 6.62.06.32.17.53.32.63.18.1.37.13.56.1l.23-.1c.54-.5 1.15-1.12 1.84-1.85.72-.76 1.5-1.68 2.36-2.74.68-.93 1.5-2.14 2.5-3.62 1-1.5 2.17-3.2 3.52-5.15.54-.64 1.13-1.43 1.78-2.4.68-.95 1.42-2.08 2.23-3.4.3-.65.78-1.2 1.45-1.67.7-.47 1.6-.8 2.7-1.02.73-.14 1.3-.1 1.7.12.44.18.7.54.8 1.1.05.2.07.44.04.68 0 .2 0 .4 0 .6-.03 1-.14 2.24-.3 3.73-.2 1.46-.43 3.2-.7 5.2-.32 1.3-.62 2.83-.9 4.6-.27 1.75-.54 3.67-.83 5.78l.42.37c.6-.45 1.44-1.4 2.52-2.82 1.1-1.48 2.48-3.42 4.1-5.82l2.77 4.04c-.2.3-.47.7-.78 1.15-.28.42-.7.9-1.22 1.43-2.95 3.08-5.42 6.06-7.42 8.94-1.98 2.83-3.46 5.55-4.45 8.16-1.46 3.93-2.7 7.14-3.72 9.62-.97 2.47-1.7 4.22-2.16 5.24-1.64 3.33-3.32 5.9-5.03 7.68-1.7 1.8-3.5 2.87-5.4 3.23-.7.14-1.23.1-1.6-.14-.38-.22-.63-.64-.74-1.25-.06-.32-.06-.73 0-1.24.07-.5.26-1.08.57-1.7.45-.98.83-1.98 1.17-3l1.2-1.53c.04-.43.05-.73.02-.9.1-.18.23-.4.4-.67.23-.27.47-.58.73-.93.1-.62.52-1.7 1.22-3.22.74-1.5 1.8-3.46 3.15-5.88 1-1.8 1.94-3.4 2.8-4.82.86-1.4 1.6-2.57 2.2-3.55.07-.28.14-.6.2-1 .1-.37.16-.74.18-1.12.26-.9.5-2 .76-3.26.3-1.3.63-2.8 1.02-4.53.14-.98.2-2.08.2-3.3 0-1.27-.05-2.62-.13-4.06-.08-.12-.16-.27-.23-.45-.05-.24-.17-.53-.37-.9-.52.4-1.07.97-1.67 1.68-.56.7-1.16 1.52-1.82 2.44-.78 1.57-1.63 2.93-2.54 4.07-.92 1.1-1.85 2-2.82 2.67-.44 1.5-1.15 2.7-2.14 3.6-.96.84-2.16 1.4-3.6 1.68-1.06.2-1.9.12-2.54-.26-.64-.4-1.06-1.13-1.26-2.15-.03-.2-.06-.43-.1-.73.02-.3.04-.65.06-1.05-.2-.3-.44-.7-.74-1.25.02-.57.02-1.2-.02-1.9-.18-.95-.4-1.65-.65-2.1-.2-.45-.48-.65-.8-.6l-.17.14c-.3.33-.73.8-1.27 1.44-.54.64-1.2 1.4-1.94 2.3-.24-.37-.53-.83-.86-1.36-.37-.53-.75-1.15-1.16-1.87-.1-.18-.2-.34-.34-.48-.12-.15-.26-.26-.4-.33z"/></svg>