<svg xmlns="http://www.w3.org/2000/svg" width="62" height="65" fill="none"><g fill="#333" clip-path="url(#a)"><path d="M27.24 24.85c-.15 0-.33-.03-.48-.14-.42-.23-.84-.47-1.32-.74-1.84-.98-3.94-2.1-3.94-4.48 0-2.38 2.07-3.5 3.9-4.48 1.87-.98 2.98-1.7 2.98-2.9 0-1.23-1.1-1.94-2.97-2.92-1.83-.98-3.9-2.1-3.9-4.5 0-2.36 2.07-3.5 3.94-4.47l.3-.14c.45-.24 1-.1 1.23.36.24.47.1 1-.36 1.24l-.3.15c-1.85 1-2.97 1.7-2.97 2.92s1.12 1.93 2.98 2.9c1.84 1 3.92 2.12 3.92 4.5 0 2.37-2.08 3.5-3.9 4.48-1.87.98-3 1.7-3 2.9 0 1.23 1.13 1.94 3 2.92.47.24.95.5 1.4.8.42.27.54.8.27 1.22-.16.27-.46.4-.76.4zM37.46 24.85c-.15 0-.33-.03-.48-.14-.42-.23-.84-.47-1.32-.74-1.83-.98-3.94-2.1-3.94-4.48 0-2.38 2.08-3.5 3.9-4.48 1.87-.98 3-1.7 3-2.9 0-1.23-1.13-1.94-3-2.92-1.82-.98-3.9-2.1-3.9-4.5 0-2.36 2.08-3.5 3.94-4.47l.3-.14c.45-.24 1-.1 1.23.36.23.44.08.98-.37 1.2l-.3.16c-1.86.98-2.97 1.7-2.97 2.9 0 1.23 1.1 1.94 2.97 2.92 1.84.98 3.9 2.1 3.9 4.5 0 2.36-2.06 3.5-3.9 4.47-1.86.98-2.97 1.7-2.97 2.9 0 1.23 1.1 1.94 2.97 2.92.48.23.96.5 1.42.8.42.26.54.8.27 1.2-.15.3-.45.45-.76.45zM40.02 65H21.98v-4.93C8.98 56.17 0 44.2 0 30.77v-.9h62v.9c0 13.44-9 25.38-21.98 29.3V65zm-16.24-1.78h14.44v-4.5l.66-.16c12.27-3.4 20.9-14.38 21.3-26.88H1.8c.4 12.53 9.05 23.5 21.3 26.88l.65.17v4.5h.03zM58.87 41.24h-26.4c-.5 0-.9-.38-.9-.9 0-.5.4-.88.9-.88h26.37c.5 0 .9.4.9.9.03.47-.4.88-.87.88zM53.04 51.3H32.47c-.5 0-.9-.38-.9-.88s.4-.9.9-.9h20.57c.5 0 .9.4.9.9s-.4.9-.9.9zM56.47 46.26H38.94c-.5 0-.9-.38-.9-.9 0-.5.4-.88.9-.88h17.53c.5 0 .9.4.9.9s-.42.88-.9.88zM60.38 36.2H40.44c-.5 0-.9-.4-.9-.9s.4-.88.9-.88h19.94c.5 0 .9.38.9.9 0 .46-.42.88-.9.88zM47.63 56.36H39.8c-.5 0-.9-.4-.9-.9s.4-.88.9-.88h7.83c.5 0 .9.38.9.9 0 .5-.4.88-.9.88z"/></g><defs><clipPath id="a"><path fill="#fff" d="M0 0h62v65H0z"/></clipPath></defs></svg>