<svg xmlns="http://www.w3.org/2000/svg" width="57" height="60" fill="none"><path fill="#333" d="M.37 29.26v-1C.37 12.68 13.05 0 28.67 0 44.3 0 57 12.66 57 28.22v1l-56.63.04zm28.3-27.24C14.5 2.02 2.94 13.27 2.4 27.24l52.54-.03C54.4 13.24 42.84 2.03 28.67 2.03zM27.35 57.74c-.2 0-.4-.06-.57-.16L9.4 45.52c-.37-.23-.5-.7-.37-1.14.13-.44.5-.7.98-.7l34.73-.04c.44 0 .84.27.98.7.14.44-.03.88-.36 1.15L27.96 57.57c-.2.1-.4.16-.6.16zM13.22 45.7l14.13 9.82 14.13-9.83H13.22zM21.5 53.94l-16.77-.07c-.06 0-.13 0-.2-.03C1.86 53.24 0 51.18 0 48.82c0-2.36 1.86-4.4 4.5-5.02.06 0 .13-.03.2-.03l10.28-.17c.54 0 1 .44 1 1 0 .6-.43 1.02-1 1.02l-10.18.14c-1.62.47-2.77 1.7-2.77 3.06 0 1.38 1.15 2.6 2.8 3l16.64.1c.57 0 1 .47 1 1 .05.58-.43 1.02-.97 1.02zM33.3 53.94c-.57 0-1-.44-1-1 0-.58.43-1.02 1-1.02l17.18-.07c1.65-.4 2.8-1.6 2.8-3 0-1.38-1.15-2.6-2.8-3l-10.18-.13c-.58 0-1.02-.47-1.02-1 0-.58.48-1.02 1.02-1.02l10.28.17c.06 0 .13 0 .2.04 2.64.6 4.5 2.67 4.5 5.02 0 2.36-1.86 4.4-4.5 5-.07 0-.14.02-.2.02H33.3zM55.95 34.6c-.57 0-1-.43-1-1v-4.4c0-.58.43-1.02 1-1.02.58 0 1.02.44 1.02 1v4.42c0 .57-.44 1-1.02 1zM8.18 39.93c-2.06 0-4-.7-5.44-1.98C1.24 36.63.4 34.88.4 33.03c0-.57.45-1 1.02-1 .57 0 1 .43 1 1 0 1.28.6 2.5 1.64 3.4 1.08.94 2.57 1.48 4.12 1.48 3.18 0 5.75-2.18 5.75-4.87 0-.57.44-1 1-1 .6 0 1.03.43 1.03 1 0 3.8-3.48 6.9-7.78 6.9zM21.94 39.93c-2.06 0-4-.7-5.44-1.98-1.5-1.32-2.33-3.07-2.33-4.92 0-.57.44-1 1-1 .58 0 1.02.43 1.02 1 0 1.28.57 2.5 1.62 3.4 1.08.94 2.57 1.48 4.12 1.48 3.18 0 5.75-2.18 5.75-4.87 0-.57.43-1 1-1 .58 0 1.02.43 1.02 1 .03 3.8-3.45 6.87-7.78 6.9.04 0 .04 0 0 0zM35.73 39.9c-4.3 0-7.77-3.1-7.77-6.9 0-.58.44-1 1-1 .6 0 1.03.42 1.03 1 0 2.7 2.56 4.88 5.73 4.88 3.18 0 5.75-2.2 5.75-4.88 0-.58.44-1 1.02-1 .57 0 1 .42 1 1 0 3.8-3.47 6.9-7.77 6.9zM49.2 39.73c-2.07 0-4-.7-5.45-1.95-1.5-1.3-2.34-3.07-2.34-4.92 0-.57.45-1 1.03-1 .57 0 1 .43 1 1 0 1.28.6 2.5 1.64 3.4 1.08.95 2.57 1.48 4.12 1.48 3.17 0 5.74-2.18 5.74-4.88 0-.57.44-1 1-1 .6 0 1.03.43 1.03 1 0 3.77-3.5 6.87-7.78 6.87zM1.4 34.4c-.6 0-1.03-.43-1.03-1v-4.38c0-.57.44-1 1.02-1 .56 0 1 .43 1 1v4.38c0 .54-.47 1-1 1zM33.2 7.58c0 1.34-1.12 2.45-2.47 2.45s-2.47-1.1-2.47-2.45c0-1.38 1.12-2.46 2.47-2.46S33.2 6.2 33.2 7.58zM20.18 13.84c0 1.35-1.1 2.46-2.46 2.46-1.36 0-2.47-1.1-2.47-2.46 0-1.35 1.1-2.46 2.47-2.46 1.35 0 2.46 1.08 2.46 2.46zM44.63 13.84c0 1.35-1.12 2.46-2.47 2.46s-2.47-1.1-2.47-2.46c0-1.38 1.1-2.46 2.46-2.46 1.35-.03 2.47 1.08 2.47 2.46zM55.58 60H2.33c-.57 0-1-.44-1-1 0-.58.43-1.02 1-1.02H55.6c.6 0 1.03.44 1.03 1-.04.55-.48 1.02-1.05 1.02z"/></svg>