<svg xmlns="http://www.w3.org/2000/svg" width="61" height="66" fill="none"><path fill="#333" d="M18.76 24.3c-5.67 0-10.3-4.65-10.3-10.36 0-5.72 4.63-10.37 10.3-10.37 5.66 0 10.28 4.65 10.28 10.37 0 5.7-4.62 10.37-10.28 10.37zm0-18.97c-4.7 0-8.54 3.86-8.54 8.6 0 4.75 3.83 8.6 8.54 8.6 4.7 0 8.53-3.85 8.53-8.6 0-4.74-3.84-8.6-8.54-8.6zM18.76 18.68c-2.6 0-4.7-2.12-4.7-4.74 0-2.63 2.1-4.75 4.7-4.75s4.7 2.1 4.7 4.74c0 2.62-2.1 4.74-4.7 4.74zm0-7.72c-1.64 0-2.96 1.33-2.96 2.98s1.32 2.97 2.96 2.97c1.63 0 2.95-1.3 2.95-2.96 0-1.62-1.3-2.98-2.94-2.98zM41.37 24.3c-5.67 0-10.3-4.65-10.3-10.36 0-5.72 4.63-10.37 10.3-10.37 5.67 0 10.28 4.65 10.28 10.37 0 5.7-4.6 10.37-10.28 10.37zm0-18.97c-4.7 0-8.53 3.86-8.53 8.6 0 4.75 3.82 8.6 8.53 8.6 4.7 0 8.53-3.85 8.53-8.6 0-4.74-3.83-8.6-8.53-8.6zM41.37 18.68c-2.6 0-4.7-2.12-4.7-4.74 0-2.63 2.1-4.75 4.7-4.75s4.7 2.1 4.7 4.74c0 2.62-2.1 4.74-4.7 4.74zm0-7.72c-1.64 0-2.95 1.33-2.95 2.98s1.3 2.97 2.95 2.97c1.63 0 2.95-1.3 2.95-2.96 0-1.62-1.32-2.98-2.95-2.98zM18.76 46.88c-5.67 0-10.3-4.66-10.3-10.37 0-5.7 4.63-10.37 10.3-10.37 5.66 0 10.28 4.66 10.28 10.38 0 5.72-4.62 10.38-10.28 10.38zm0-18.98c-4.7 0-8.54 3.86-8.54 8.6 0 4.75 3.83 8.6 8.54 8.6 4.7 0 8.53-3.85 8.53-8.6 0-4.74-3.84-8.6-8.54-8.6zM18.76 41.25c-2.6 0-4.7-2.12-4.7-4.74s2.1-4.74 4.7-4.74 4.7 2.12 4.7 4.75-2.1 4.75-4.7 4.75zm0-7.72c-1.64 0-2.96 1.33-2.96 2.98 0 1.66 1.32 2.98 2.96 2.98 1.63 0 2.95-1.32 2.95-2.97 0-1.64-1.3-2.97-2.94-2.97zM41.37 46.88c-5.67 0-10.3-4.66-10.3-10.37 0-5.7 4.63-10.37 10.3-10.37 5.67 0 10.28 4.66 10.28 10.38 0 5.72-4.6 10.38-10.28 10.38zm0-18.98c-4.7 0-8.53 3.86-8.53 8.6 0 4.75 3.82 8.6 8.53 8.6 4.7 0 8.53-3.85 8.53-8.6 0-4.74-3.83-8.6-8.53-8.6zM41.37 41.25c-2.6 0-4.7-2.12-4.7-4.74s2.1-4.74 4.7-4.74 4.7 2.12 4.7 4.75-2.1 4.75-4.7 4.75zm0-7.72c-1.64 0-2.95 1.33-2.95 2.98 0 1.66 1.3 2.98 2.95 2.98 1.63 0 2.95-1.32 2.95-2.97 0-1.64-1.32-2.97-2.95-2.97zM60.1 1.77H.87c-.5 0-.88-.4-.88-.9S.38 0 .88 0h59.2c.5 0 .9.38.9.88s-.4.9-.9.9zM60.1 6.54h-5.03c-.5 0-.88-.38-.88-.88s.37-.9.87-.9h5.02c.5 0 .87.4.87.9s-.38.88-.88.88zM60.1 11.3h-5.03c-.5 0-.88-.37-.88-.87s.37-.88.87-.88h5.02c.5 0 .87.38.87.88s-.38.88-.88.88zM60.1 16.1h-5.03c-.5 0-.88-.4-.88-.9s.37-.88.87-.88h5.02c.5 0 .87.38.87.88s-.38.9-.88.9zM60.1 20.86h-5.03c-.5 0-.88-.38-.88-.88s.37-.9.87-.9h5.02c.5 0 .87.4.87.9s-.38.88-.88.88zM60.1 25.63h-5.03c-.5 0-.88-.38-.88-.88s.37-.88.87-.88h5.02c.5 0 .87.38.87.88s-.38.88-.88.88zM60.1 30.4h-5.03c-.5 0-.88-.38-.88-.88s.37-.88.87-.88h5.02c.5 0 .87.38.87.88s-.38.9-.88.9zM60.1 35.2h-5.03c-.5 0-.88-.37-.88-.87s.37-.9.87-.9h5.02c.5 0 .87.4.87.9 0 .47-.38.88-.88.88zM60.1 39.98h-5.03c-.5 0-.88-.38-.88-.88s.37-.9.87-.9h5.02c.5 0 .87.4.87.9 0 .47-.38.88-.88.88zM60.1 44.76h-5.03c-.5 0-.88-.4-.88-.9s.37-.87.87-.87h5.02c.5 0 .87.37.87.87s-.38.9-.88.9zM6.05 6.54H.88c-.5 0-.88-.38-.88-.88s.38-.9.88-.9h5.17c.5 0 .87.4.87.9s-.38.88-.87.88zM6.05 11.3H.88c-.5 0-.88-.37-.88-.87s.38-.88.88-.88h5.17c.5 0 .87.38.87.88s-.38.88-.87.88zM6.05 16.1H.88c-.5 0-.88-.4-.88-.9s.38-.88.88-.88h5.17c.5 0 .87.38.87.88s-.38.9-.87.9zM6.05 20.86H.88c-.5 0-.88-.38-.88-.88s.38-.9.88-.9h5.17c.5 0 .87.4.87.9s-.38.88-.87.88zM6.05 25.63H.88c-.5 0-.88-.38-.88-.88s.38-.88.88-.88h5.17c.5 0 .87.38.87.88s-.38.88-.87.88zM6.05 30.4H.88c-.5 0-.88-.38-.88-.88s.38-.88.88-.88h5.17c.5 0 .87.38.87.88s-.38.9-.87.9zM6.05 35.2H.88c-.5 0-.88-.37-.88-.87s.38-.9.88-.9h5.17c.5 0 .87.4.87.9 0 .47-.38.88-.87.88zM6.05 39.98H.88c-.5 0-.88-.38-.88-.88s.38-.9.88-.9h5.17c.5 0 .87.4.87.9 0 .47-.38.88-.87.88zM6.05 44.76H.88c-.5 0-.88-.4-.88-.9S.38 43 .88 43h5.17c.5 0 .87.37.87.87s-.38.9-.87.9zM60.1 49.53H.87c-.5 0-.88-.38-.88-.88s.38-.9.88-.9h59.2c.5 0 .9.4.9.9 0 .47-.4.88-.9.88zM9.35 66c-.44 0-.82-.32-.88-.77-.06-.47.3-.9.76-1L60 57.75c.47-.06.9.3 1 .77.06.47-.3.9-.76 1L9.47 66c-.03 0-.06 0-.12 0zM58.58 63.5c-.06 0-.12 0-.15 0L8.06 54.42c-.46-.1-.8-.53-.7-1.03.1-.48.56-.8 1.02-.72l50.37 9.08c.47.1.8.53.7 1.03-.1.4-.44.7-.87.7z"/></svg>