<svg xmlns="http://www.w3.org/2000/svg" width="36" height="32" fill="none"><path fill="#333" d="M36 15.13c0-.97-.33-1.76-.98-2.4-.64-.65-1.43-.98-2.4-.98h-.1c-.14-1.57-.56-3.04-1.27-4.4-.68-1.38-1.57-2.57-2.67-3.58-1.1-1-2.37-1.8-3.8-2.4C23.37.8 21.85.5 20.26.5h-4.5c-1.6 0-3.1.3-4.54.88-1.4.58-2.68 1.38-3.78 2.4-1.1 1-2 2.2-2.7 3.58-.7 1.35-1.1 2.82-1.24 4.4h-.1c-.97 0-1.77.32-2.43.97-.63.64-.95 1.43-.95 2.4 0 .56.13 1.08.4 1.58.24.48.56.85.94 1.13-.38.45-.7.97-.95 1.58-.27.6-.4 1.23-.4 1.9 0 1.14.33 2.12.98 2.97.66.84 1.5 1.43 2.5 1.75.16 1.7.88 3.1 2.15 4.26C6.88 31.43 8.38 32 10.13 32h15.74c1.74 0 3.24-.57 4.5-1.72 1.27-1.15 2-2.57 2.15-4.26 1-.32 1.84-.92 2.5-1.8.65-.86.98-1.83.98-2.9 0-.7-.13-1.32-.4-1.9-.24-.62-.56-1.14-.94-1.6.38-.27.7-.64.95-1.1.27-.5.4-1.03.4-1.6zM15.75 2.74h4.5c1.3 0 2.5.23 3.66.7 1.18.45 2.2 1.08 3.1 1.9.9.8 1.62 1.75 2.18 2.85.6 1.1.95 2.28 1.1 3.55H5.72c.14-1.27.5-2.44 1.06-3.52.57-1.1 1.3-2.05 2.2-2.84.9-.83 1.9-1.48 3.06-1.95 1.17-.47 2.4-.7 3.7-.7zM3.37 14h29.25c.33 0 .6.1.8.32.22.2.33.48.33.8 0 .33-.1.6-.32.8-.2.22-.48.33-.8.33h-4.5c-.12 0-.24.02-.36.07-.1.05-.2.1-.3.14l-3.84 2.95-3.84-2.8c-.12-.12-.24-.2-.36-.24-.1-.07-.2-.1-.32-.1H3.38c-.32 0-.6-.12-.8-.33-.2-.2-.32-.48-.32-.8 0-.33.1-.6.32-.8.2-.22.48-.33.8-.33zm22.5 15.75H10.13c-1.07 0-2-.32-2.8-.95-.78-.66-1.3-1.46-1.6-2.43h24.44c-.23.97-.73 1.77-1.5 2.43-.78.63-1.7.95-2.8.95zm5.07-5.63H5.06c-.8 0-1.46-.26-2-.8s-.8-1.2-.8-2 .26-1.47.8-2c.54-.55 1.2-.82 2-.82h13.7l4.2 3.16c.1.05.22.1.3.14.13.05.25.07.36.07.12 0 .23-.02.32-.07.12-.04.24-.1.35-.14l4.18-3.16h2.46c.8 0 1.46.27 2 .8.54.55.8 1.22.8 2 0 .8-.26 1.48-.8 2.02s-1.2.8-2 .8zM12.02 7.6c-.2-.23-.47-.35-.77-.35-.3 0-.56.12-.77.35-.24.2-.36.47-.36.78 0 .3.12.56.36.77l1.12 1.12c.1.12.2.2.35.28.17.05.3.07.43.07.1 0 .24-.02.38-.07.17-.07.3-.16.4-.28.22-.2.34-.47.34-.77 0-.3-.12-.56-.35-.77L12.02 7.6zm5.2-2.25L16.1 6.48c-.23.2-.35.47-.35.77 0 .3.12.56.35.77.1.12.2.2.32.28.14.05.3.07.45.07.17 0 .3-.02.43-.07.14-.07.25-.16.35-.28l1.12-1.12c.24-.2.36-.47.36-.78 0-.3-.12-.56-.36-.77-.2-.23-.47-.35-.77-.35-.3 0-.56.12-.77.35zm7.53.78c-.33 0-.6.1-.8.3-.22.22-.32.5-.32.82v1.13c0 .32.1.6.3.8.22.2.5.32.82.32.33 0 .6-.1.8-.32.22-.2.32-.48.32-.8V7.25c0-.33-.1-.6-.3-.8-.22-.22-.5-.33-.82-.33z"/></svg>