<svg xmlns="http://www.w3.org/2000/svg" width="34" height="32" fill="none"><path fill="#333" d="M.13 3.88v22.5c0 1.57.53 2.9 1.6 4C2.84 31.46 4.2 32 5.76 32H30.5c.33 0 .6-.1.8-.32.22-.2.32-.48.32-.8V23h1.13c.33 0 .6-.1.8-.32.22-.2.33-.48.33-.8v-6.75c0-.33-.1-.6-.32-.8-.2-.22-.48-.33-.8-.33h-1.13V6.12c0-.32-.1-.6-.32-.8-.2-.2-.47-.32-.8-.32H26V1.62c0-.32-.1-.6-.32-.8-.2-.2-.48-.32-.8-.32H3.5c-.96 0-1.77.33-2.43.98-.63.64-.95 1.43-.95 2.4zm31.5 16.87h-6.75c-.6 0-1.14-.22-1.6-.67-.43-.44-.66-.97-.66-1.58 0-.6.23-1.14.67-1.58.44-.45.97-.67 1.57-.67h6.75v4.5zM29.38 14h-4.5c-1.25 0-2.3.45-3.2 1.34-.87.86-1.3 1.92-1.3 3.16 0 1.24.43 2.3 1.3 3.2.9.87 1.95 1.3 3.2 1.3h4.5v6.75H5.75c-.96 0-1.77-.32-2.43-.95-.63-.66-.94-1.46-.94-2.43V7.05c.04 0 .1 0 .14 0 .07 0 .14.03.2.1.05 0 .1 0 .1 0 .04 0 .07 0 .12 0 .04.05.1.1.2.1.13 0 .24 0 .36 0h25.88V14zM3.5 2.75h20.25V5H3.5c-.33 0-.6-.1-.8-.32-.22-.2-.33-.48-.33-.8 0-.33.1-.6.32-.8.2-.22.47-.33.8-.33zm24.75 14.63h-1.13c-.32 0-.6.1-.8.3-.2.22-.32.5-.32.82 0 .33.1.6.32.8.2.22.48.32.8.32h1.13c.33 0 .6-.1.8-.3.22-.22.32-.5.32-.82 0-.33-.1-.6-.3-.8-.22-.22-.5-.32-.82-.32z"/></svg>